<svg width="394" height="334" viewBox="0 0 394 334" fill="none" xmlns="http://www.w3.org/2000/svg">
<rect x="131" y="139" width="148" height="43" fill="#58A3AD"/>
<rect x="148" y="153" width="9" height="15" fill="#353535"/>
<rect x="137" y="164" width="6" height="4" fill="#FFC83C"/>
<rect x="240.839" y="147" width="20.1336" height="19.5711" transform="rotate(45 240.839 147)" fill="#515151"/>
<path d="M165.533 200H164.332L167.804 190.545H168.986L172.457 200H171.257L168.432 192.041H168.358L165.533 200ZM165.976 196.307H170.814V197.322H165.976V196.307ZM173.782 200V192.909H174.835V193.98H174.909C175.038 193.629 175.272 193.345 175.61 193.126C175.949 192.908 176.331 192.798 176.755 192.798C176.835 192.798 176.935 192.8 177.055 192.803C177.175 192.806 177.266 192.811 177.328 192.817V193.925C177.291 193.915 177.206 193.902 177.074 193.883C176.945 193.862 176.808 193.851 176.663 193.851C176.318 193.851 176.011 193.923 175.74 194.068C175.472 194.209 175.26 194.406 175.103 194.659C174.949 194.908 174.872 195.193 174.872 195.513V200H173.782ZM181.081 200.148C180.49 200.148 179.968 199.998 179.516 199.7C179.064 199.398 178.71 198.974 178.454 198.426C178.199 197.875 178.071 197.224 178.071 196.473C178.071 195.728 178.199 195.082 178.454 194.534C178.71 193.986 179.065 193.563 179.521 193.265C179.976 192.966 180.502 192.817 181.099 192.817C181.561 192.817 181.926 192.894 182.194 193.048C182.464 193.198 182.671 193.371 182.812 193.565C182.957 193.755 183.069 193.912 183.149 194.036H183.241V190.545H184.331V200H183.278V198.911H183.149C183.069 199.04 182.955 199.203 182.808 199.4C182.66 199.594 182.449 199.768 182.175 199.922C181.901 200.072 181.536 200.148 181.081 200.148ZM181.229 199.169C181.666 199.169 182.035 199.055 182.337 198.827C182.638 198.597 182.868 198.278 183.025 197.872C183.181 197.462 183.26 196.99 183.26 196.455C183.26 195.925 183.183 195.462 183.029 195.065C182.875 194.665 182.647 194.354 182.346 194.132C182.044 193.908 181.672 193.795 181.229 193.795C180.767 193.795 180.382 193.914 180.075 194.151C179.77 194.385 179.541 194.703 179.387 195.107C179.236 195.507 179.161 195.956 179.161 196.455C179.161 196.959 179.237 197.418 179.391 197.83C179.548 198.24 179.779 198.566 180.084 198.809C180.392 199.049 180.773 199.169 181.229 199.169ZM190.946 197.101V192.909H192.036V200H190.946V198.8H190.873C190.706 199.16 190.448 199.466 190.097 199.718C189.746 199.968 189.303 200.092 188.767 200.092C188.324 200.092 187.93 199.995 187.586 199.801C187.241 199.605 186.97 199.309 186.773 198.915C186.576 198.518 186.478 198.018 186.478 197.415V192.909H187.567V197.341C187.567 197.858 187.712 198.27 188.001 198.578C188.293 198.886 188.666 199.04 189.118 199.04C189.389 199.04 189.665 198.971 189.945 198.832C190.228 198.694 190.465 198.481 190.656 198.195C190.849 197.909 190.946 197.544 190.946 197.101ZM194.031 200V192.909H195.121V200H194.031ZM194.585 191.727C194.373 191.727 194.19 191.655 194.036 191.51C193.885 191.366 193.81 191.192 193.81 190.989C193.81 190.786 193.885 190.612 194.036 190.467C194.19 190.322 194.373 190.25 194.585 190.25C194.798 190.25 194.979 190.322 195.13 190.467C195.284 190.612 195.361 190.786 195.361 190.989C195.361 191.192 195.284 191.366 195.13 191.51C194.979 191.655 194.798 191.727 194.585 191.727ZM198.206 195.734V200H197.116V192.909H198.169V194.017H198.261C198.427 193.657 198.68 193.368 199.018 193.149C199.357 192.928 199.794 192.817 200.329 192.817C200.809 192.817 201.23 192.915 201.59 193.112C201.95 193.306 202.23 193.602 202.43 193.999C202.63 194.393 202.73 194.891 202.73 195.494V200H201.64V195.568C201.64 195.011 201.496 194.577 201.206 194.266C200.917 193.952 200.52 193.795 200.015 193.795C199.668 193.795 199.357 193.871 199.083 194.022C198.812 194.172 198.598 194.393 198.441 194.682C198.284 194.971 198.206 195.322 198.206 195.734ZM207.601 200.148C206.961 200.148 206.4 199.995 205.916 199.691C205.436 199.386 205.061 198.96 204.79 198.412C204.522 197.864 204.388 197.224 204.388 196.491C204.388 195.753 204.522 195.108 204.79 194.557C205.061 194.006 205.436 193.578 205.916 193.274C206.4 192.969 206.961 192.817 207.601 192.817C208.242 192.817 208.802 192.969 209.282 193.274C209.765 193.578 210.141 194.006 210.408 194.557C210.679 195.108 210.815 195.753 210.815 196.491C210.815 197.224 210.679 197.864 210.408 198.412C210.141 198.96 209.765 199.386 209.282 199.691C208.802 199.995 208.242 200.148 207.601 200.148ZM207.601 199.169C208.088 199.169 208.488 199.044 208.802 198.795C209.116 198.546 209.348 198.218 209.499 197.812C209.65 197.406 209.725 196.965 209.725 196.491C209.725 196.018 209.65 195.576 209.499 195.167C209.348 194.757 209.116 194.426 208.802 194.174C208.488 193.922 208.088 193.795 207.601 193.795C207.115 193.795 206.715 193.922 206.401 194.174C206.087 194.426 205.855 194.757 205.704 195.167C205.553 195.576 205.478 196.018 205.478 196.491C205.478 196.965 205.553 197.406 205.704 197.812C205.855 198.218 206.087 198.546 206.401 198.795C206.715 199.044 207.115 199.169 207.601 199.169ZM217.223 195.734V200H216.134V192.909H217.186V194.017H217.279C217.445 193.657 217.697 193.368 218.036 193.149C218.374 192.928 218.811 192.817 219.347 192.817C219.827 192.817 220.247 192.915 220.607 193.112C220.967 193.306 221.247 193.602 221.447 193.999C221.647 194.393 221.748 194.891 221.748 195.494V200H220.658V195.568C220.658 195.011 220.513 194.577 220.224 194.266C219.935 193.952 219.538 193.795 219.033 193.795C218.685 193.795 218.374 193.871 218.1 194.022C217.83 194.172 217.616 194.393 217.459 194.682C217.302 194.971 217.223 195.322 217.223 195.734ZM225.825 200.166C225.376 200.166 224.968 200.082 224.602 199.912C224.235 199.74 223.945 199.492 223.729 199.169C223.514 198.843 223.406 198.449 223.406 197.987C223.406 197.581 223.486 197.252 223.646 196.999C223.806 196.744 224.02 196.544 224.288 196.399C224.555 196.254 224.851 196.147 225.174 196.076C225.5 196.002 225.828 195.944 226.157 195.901C226.588 195.845 226.938 195.804 227.205 195.776C227.476 195.745 227.673 195.694 227.796 195.624C227.922 195.553 227.986 195.43 227.986 195.254V195.217C227.986 194.762 227.861 194.408 227.612 194.156C227.365 193.903 226.991 193.777 226.49 193.777C225.97 193.777 225.562 193.891 225.266 194.119C224.971 194.346 224.763 194.589 224.643 194.848L223.609 194.479C223.794 194.048 224.04 193.712 224.348 193.472C224.659 193.229 224.997 193.06 225.363 192.964C225.733 192.866 226.096 192.817 226.453 192.817C226.681 192.817 226.942 192.844 227.238 192.9C227.536 192.952 227.824 193.061 228.101 193.228C228.381 193.394 228.613 193.645 228.798 193.98C228.983 194.316 229.075 194.765 229.075 195.328V200H227.986V199.04H227.93C227.856 199.194 227.733 199.358 227.561 199.534C227.388 199.709 227.159 199.858 226.873 199.982C226.587 200.105 226.237 200.166 225.825 200.166ZM225.991 199.188C226.422 199.188 226.785 199.103 227.081 198.934C227.379 198.764 227.604 198.546 227.755 198.278C227.909 198.01 227.986 197.729 227.986 197.433V196.436C227.939 196.491 227.838 196.542 227.681 196.588C227.527 196.632 227.348 196.67 227.145 196.704C226.945 196.735 226.75 196.762 226.559 196.787C226.371 196.808 226.219 196.827 226.102 196.842C225.819 196.879 225.554 196.939 225.308 197.022C225.065 197.102 224.868 197.224 224.717 197.387C224.569 197.547 224.495 197.766 224.495 198.043C224.495 198.421 224.636 198.707 224.916 198.901C225.199 199.092 225.557 199.188 225.991 199.188ZM232.153 195.734V200H231.064V192.909H232.116V194.017H232.208C232.375 193.657 232.627 193.368 232.966 193.149C233.304 192.928 233.741 192.817 234.277 192.817C234.757 192.817 235.177 192.915 235.537 193.112C235.897 193.306 236.177 193.602 236.377 193.999C236.577 194.393 236.677 194.891 236.677 195.494V200H235.588V195.568C235.588 195.011 235.443 194.577 235.154 194.266C234.864 193.952 234.467 193.795 233.963 193.795C233.615 193.795 233.304 193.871 233.03 194.022C232.759 194.172 232.545 194.393 232.388 194.682C232.232 194.971 232.153 195.322 232.153 195.734ZM241.549 200.148C240.909 200.148 240.347 199.995 239.864 199.691C239.384 199.386 239.008 198.96 238.737 198.412C238.47 197.864 238.336 197.224 238.336 196.491C238.336 195.753 238.47 195.108 238.737 194.557C239.008 194.006 239.384 193.578 239.864 193.274C240.347 192.969 240.909 192.817 241.549 192.817C242.189 192.817 242.749 192.969 243.229 193.274C243.712 193.578 244.088 194.006 244.356 194.557C244.626 195.108 244.762 195.753 244.762 196.491C244.762 197.224 244.626 197.864 244.356 198.412C244.088 198.96 243.712 199.386 243.229 199.691C242.749 199.995 242.189 200.148 241.549 200.148ZM241.549 199.169C242.035 199.169 242.435 199.044 242.749 198.795C243.063 198.546 243.295 198.218 243.446 197.812C243.597 197.406 243.672 196.965 243.672 196.491C243.672 196.018 243.597 195.576 243.446 195.167C243.295 194.757 243.063 194.426 242.749 194.174C242.435 193.922 242.035 193.795 241.549 193.795C241.062 193.795 240.662 193.922 240.348 194.174C240.035 194.426 239.802 194.757 239.651 195.167C239.501 195.576 239.425 196.018 239.425 196.491C239.425 196.965 239.501 197.406 239.651 197.812C239.802 198.218 240.035 198.546 240.348 198.795C240.662 199.044 241.062 199.169 241.549 199.169Z" fill="black"/>
<rect width="68" height="68" fill="#4DA957"/>
<rect x="21" y="21" width="25" height="25" rx="4" fill="#FFDCBB"/>
<rect x="26" y="16" width="16" height="5" fill="#C07C56"/>
<path d="M27.608 77.5C27.5064 77.1892 27.3725 76.9106 27.2063 76.6644C27.0432 76.4151 26.8478 76.2028 26.62 76.0273C26.3954 75.8519 26.1399 75.718 25.8537 75.6257C25.5675 75.5334 25.2536 75.4872 24.9119 75.4872C24.3518 75.4872 23.8424 75.6319 23.3839 75.9212C22.9253 76.2105 22.5606 76.6367 22.2898 77.1999C22.0189 77.7631 21.8835 78.4541 21.8835 79.2727C21.8835 80.0914 22.0205 80.7823 22.2944 81.3455C22.5683 81.9087 22.9392 82.335 23.407 82.6243C23.8748 82.9136 24.401 83.0582 24.9858 83.0582C25.5275 83.0582 26.0045 82.9428 26.4169 82.712C26.8324 82.4781 27.1555 82.1488 27.3864 81.7241C27.6203 81.2963 27.7372 80.7931 27.7372 80.2145L28.0881 80.2884H25.2443V79.2727H28.8452V80.2884C28.8452 81.067 28.679 81.7441 28.3466 82.3196C28.0173 82.8951 27.5618 83.3414 26.9801 83.6584C26.4015 83.9723 25.7367 84.1293 24.9858 84.1293C24.1487 84.1293 23.4131 83.9323 22.7791 83.5384C22.1482 83.1444 21.6558 82.5843 21.3018 81.858C20.951 81.1316 20.7756 80.2699 20.7756 79.2727C20.7756 78.5249 20.8756 77.8524 21.0756 77.2553C21.2788 76.6552 21.565 76.1443 21.9343 75.7227C22.3036 75.301 22.7406 74.9779 23.2454 74.7532C23.7501 74.5285 24.3056 74.4162 24.9119 74.4162C25.4105 74.4162 25.8752 74.4916 26.3061 74.6424C26.7401 74.7901 27.1263 75.0009 27.4648 75.2749C27.8065 75.5457 28.0911 75.8704 28.3189 76.2489C28.5466 76.6244 28.7036 77.0414 28.7898 77.5H27.608ZM30.806 84V74.5455H34.0006C34.7423 74.5455 35.3486 74.6793 35.8195 74.9471C36.2935 75.2118 36.6443 75.5703 36.8721 76.0227C37.0998 76.4751 37.2137 76.9799 37.2137 77.5369C37.2137 78.094 37.0998 78.6003 36.8721 79.0558C36.6474 79.5112 36.2996 79.8744 35.8287 80.1452C35.3579 80.413 34.7546 80.5469 34.0191 80.5469H31.7293V79.5312H33.9822C34.49 79.5312 34.8978 79.4435 35.2055 79.2681C35.5133 79.0927 35.7364 78.8557 35.8749 78.5572C36.0165 78.2556 36.0873 77.9155 36.0873 77.5369C36.0873 77.1584 36.0165 76.8198 35.8749 76.5213C35.7364 76.2228 35.5117 75.9889 35.2009 75.8196C34.8901 75.6473 34.4777 75.5611 33.9637 75.5611H31.9509V84H30.806ZM44.2284 76.9091C44.173 76.4413 43.9484 76.0781 43.5544 75.8196C43.1605 75.5611 42.6773 75.4318 42.1048 75.4318C41.6863 75.4318 41.32 75.4995 41.0061 75.6349C40.6953 75.7704 40.4521 75.9566 40.2767 76.1935C40.1044 76.4305 40.0182 76.6998 40.0182 77.0014C40.0182 77.2538 40.0782 77.4708 40.1982 77.6523C40.3213 77.8308 40.4783 77.9801 40.6691 78.1001C40.8599 78.2171 41.06 78.314 41.2693 78.391C41.4785 78.4648 41.6709 78.5249 41.8463 78.571L42.8066 78.8295C43.0528 78.8942 43.3267 78.9834 43.6283 79.0973C43.933 79.2112 44.2238 79.3666 44.5008 79.5636C44.7809 79.7575 45.0117 80.0067 45.1933 80.3114C45.3749 80.6161 45.4656 80.9901 45.4656 81.4332C45.4656 81.9441 45.3318 82.4058 45.064 82.8182C44.7993 83.2306 44.4115 83.5584 43.9007 83.8015C43.3928 84.0446 42.7758 84.1662 42.0494 84.1662C41.3724 84.1662 40.7861 84.0569 40.2906 83.8384C39.7981 83.6199 39.4104 83.3152 39.1272 82.9244C38.8472 82.5335 38.6887 82.0795 38.6517 81.5625H39.8335C39.8643 81.9195 39.9843 82.215 40.1936 82.4489C40.406 82.6797 40.6737 82.852 40.9969 82.9659C41.3231 83.0767 41.674 83.1321 42.0494 83.1321C42.4865 83.1321 42.8789 83.0613 43.2267 82.9197C43.5744 82.7751 43.8499 82.575 44.053 82.3196C44.2561 82.0611 44.3577 81.7595 44.3577 81.4148C44.3577 81.1009 44.27 80.8454 44.0945 80.6484C43.9191 80.4515 43.6883 80.2914 43.4021 80.1683C43.1159 80.0452 42.8066 79.9375 42.4742 79.8452L41.3108 79.5128C40.5722 79.3004 39.9874 78.9973 39.5566 78.6033C39.1257 78.2094 38.9102 77.6939 38.9102 77.0568C38.9102 76.5275 39.0534 76.0658 39.3396 75.6719C39.6289 75.2749 40.0167 74.9671 40.5029 74.7486C40.9923 74.527 41.5386 74.4162 42.1418 74.4162C42.7512 74.4162 43.2928 74.5254 43.7668 74.744C44.2407 74.9594 44.6162 75.2549 44.8932 75.6303C45.1733 76.0058 45.321 76.4321 45.3364 76.9091H44.2284Z" fill="black"/>
<path d="M131.027 126C131.579 125.985 132.015 125.525 132 124.973L131.756 115.976C131.742 115.424 131.282 114.989 130.73 115.004C130.178 115.019 129.742 115.478 129.757 116.03L129.973 124.027L121.976 124.244C121.424 124.258 120.989 124.718 121.004 125.27C121.019 125.822 121.478 126.258 122.03 126.243L131.027 126ZM73.3123 71.726L130.312 125.726L131.688 124.274L74.6877 70.274L73.3123 71.726Z" fill="black"/>
<path d="M108.349 79.5455H109.494V85.8054C109.494 86.4517 109.342 87.0288 109.037 87.5366C108.736 88.0413 108.309 88.4399 107.759 88.7322C107.208 89.0215 106.561 89.1662 105.82 89.1662C105.078 89.1662 104.432 89.0215 103.881 88.7322C103.33 88.4399 102.902 88.0413 102.597 87.5366C102.296 87.0288 102.145 86.4517 102.145 85.8054V79.5455H103.29V85.7131C103.29 86.1747 103.391 86.5856 103.594 86.9457C103.798 87.3027 104.087 87.5843 104.462 87.7905C104.841 87.9936 105.293 88.0952 105.82 88.0952C106.346 88.0952 106.798 87.9936 107.177 87.7905C107.555 87.5843 107.845 87.3027 108.045 86.9457C108.248 86.5856 108.349 86.1747 108.349 85.7131V79.5455ZM112.168 89H110.968L114.44 79.5455H115.622L119.093 89H117.893L115.068 81.0412H114.994L112.168 89ZM112.612 85.3068H117.45V86.3224H112.612V85.3068ZM120.566 89V79.5455H123.76C124.499 79.5455 125.105 79.6716 125.579 79.924C126.053 80.1733 126.404 80.5165 126.632 80.9535C126.86 81.3905 126.973 81.8875 126.973 82.4446C126.973 83.0017 126.86 83.4956 126.632 83.9265C126.404 84.3574 126.055 84.6959 125.584 84.9421C125.113 85.1853 124.511 85.3068 123.779 85.3068H121.194V84.2727H123.742C124.247 84.2727 124.653 84.1989 124.961 84.0511C125.272 83.9034 125.496 83.6941 125.635 83.4233C125.776 83.1494 125.847 82.8232 125.847 82.4446C125.847 82.0661 125.776 81.7352 125.635 81.4521C125.493 81.1689 125.267 80.9504 124.956 80.7965C124.645 80.6396 124.234 80.5611 123.723 80.5611H121.711V89H120.566ZM125.016 84.7528L127.343 89H126.013L123.723 84.7528H125.016ZM128.364 80.5611V79.5455H135.455V80.5611H132.482V89H131.337V80.5611H128.364Z" fill="black"/>
<rect x="44" y="52" width="7" height="7" fill="#FF5151"/>
<path d="M196.799 130.754C197.193 131.141 197.826 131.136 198.213 130.742L204.522 124.323C204.909 123.929 204.904 123.296 204.51 122.909C204.116 122.522 203.483 122.527 203.096 122.921L197.488 128.627L191.782 123.019C191.389 122.632 190.755 122.637 190.368 123.031C189.981 123.425 189.987 124.058 190.38 124.445L196.799 130.754ZM196 72.0086L196.5 130.05L198.5 130.032L198 71.9914L196 72.0086Z" fill="black"/>
<path d="M207.29 96.5455V106H206.145V96.5455H207.29ZM209.419 106V105.169L212.54 101.753C212.906 101.353 213.208 101.005 213.445 100.71C213.682 100.411 213.857 100.131 213.971 99.8693C214.088 99.6046 214.146 99.3277 214.146 99.0384C214.146 98.706 214.066 98.4182 213.906 98.1751C213.749 97.9319 213.534 97.7442 213.26 97.6119C212.986 97.4795 212.678 97.4134 212.337 97.4134C211.974 97.4134 211.657 97.4888 211.386 97.6396C211.118 97.7873 210.91 97.995 210.763 98.2628C210.618 98.5305 210.546 98.8445 210.546 99.2045H209.456C209.456 98.6506 209.584 98.1643 209.839 97.7457C210.095 97.3272 210.442 97.0009 210.883 96.767C211.326 96.5331 211.823 96.4162 212.374 96.4162C212.928 96.4162 213.419 96.5331 213.846 96.767C214.274 97.0009 214.61 97.3164 214.853 97.7134C215.096 98.1104 215.217 98.5521 215.217 99.0384C215.217 99.3861 215.154 99.7262 215.028 100.059C214.905 100.388 214.69 100.756 214.382 101.162C214.077 101.565 213.654 102.058 213.112 102.639L210.989 104.911V104.984H215.384V106H209.419ZM225.064 99.5H223.919C223.852 99.1707 223.733 98.8814 223.564 98.6321C223.398 98.3828 223.195 98.1735 222.955 98.0043C222.718 97.8319 222.455 97.7027 222.165 97.6165C221.876 97.5303 221.574 97.4872 221.26 97.4872C220.688 97.4872 220.169 97.6319 219.705 97.9212C219.243 98.2105 218.875 98.6367 218.601 99.1999C218.33 99.7631 218.195 100.454 218.195 101.273C218.195 102.091 218.33 102.782 218.601 103.346C218.875 103.909 219.243 104.335 219.705 104.624C220.169 104.914 220.688 105.058 221.26 105.058C221.574 105.058 221.876 105.015 222.165 104.929C222.455 104.843 222.718 104.715 222.955 104.546C223.195 104.373 223.398 104.163 223.564 103.913C223.733 103.661 223.852 103.372 223.919 103.045H225.064C224.978 103.529 224.821 103.961 224.593 104.343C224.366 104.724 224.083 105.049 223.744 105.317C223.406 105.581 223.025 105.783 222.604 105.922C222.185 106.06 221.737 106.129 221.26 106.129C220.454 106.129 219.737 105.932 219.109 105.538C218.481 105.144 217.987 104.584 217.627 103.858C217.267 103.132 217.087 102.27 217.087 101.273C217.087 100.276 217.267 99.4138 217.627 98.6875C217.987 97.9612 218.481 97.401 219.109 97.0071C219.737 96.6132 220.454 96.4162 221.26 96.4162C221.737 96.4162 222.185 96.4854 222.604 96.6239C223.025 96.7624 223.406 96.9656 223.744 97.2333C224.083 97.498 224.366 97.8211 224.593 98.2028C224.821 98.5813 224.978 99.0137 225.064 99.5Z" fill="black"/>
<rect x="178" y="5" width="37" height="44" fill="#477258"/>
<rect x="190" y="20" width="14" height="14" fill="#474747"/>
<path d="M159.989 59.4162C160.376 59.4193 160.764 59.4931 161.152 59.6378C161.54 59.7824 161.894 60.0225 162.214 60.358C162.534 60.6903 162.791 61.1443 162.985 61.7198C163.179 62.2953 163.276 63.017 163.276 63.8849C163.276 64.7251 163.196 65.4715 163.036 66.1239C162.879 66.7733 162.651 67.3211 162.352 67.7674C162.057 68.2137 161.697 68.5522 161.272 68.783C160.85 69.0138 160.373 69.1293 159.841 69.1293C159.312 69.1293 158.839 69.0246 158.424 68.8153C158.011 68.603 157.673 68.3091 157.408 67.9336C157.146 67.555 156.979 67.1165 156.905 66.6179H158.031C158.133 67.0518 158.334 67.4104 158.636 67.6935C158.941 67.9736 159.342 68.1136 159.841 68.1136C160.57 68.1136 161.146 67.7951 161.567 67.158C161.992 66.521 162.205 65.6207 162.205 64.4574H162.131C161.958 64.7159 161.754 64.939 161.517 65.1268C161.28 65.3145 161.017 65.4592 160.727 65.5607C160.438 65.6623 160.13 65.7131 159.804 65.7131C159.262 65.7131 158.765 65.5792 158.313 65.3114C157.864 65.0406 157.503 64.6697 157.233 64.1989C156.965 63.7249 156.831 63.1832 156.831 62.5739C156.831 61.9953 156.96 61.4659 157.219 60.9858C157.48 60.5026 157.847 60.1179 158.317 59.8317C158.791 59.5455 159.348 59.407 159.989 59.4162ZM159.989 60.4318C159.601 60.4318 159.252 60.5288 158.941 60.7227C158.633 60.9135 158.388 61.172 158.207 61.4982C158.028 61.8214 157.939 62.1799 157.939 62.5739C157.939 62.9678 158.025 63.3263 158.197 63.6495C158.373 63.9696 158.611 64.225 158.913 64.4158C159.218 64.6036 159.564 64.6974 159.952 64.6974C160.244 64.6974 160.516 64.6405 160.769 64.5266C161.021 64.4097 161.241 64.2512 161.429 64.0511C161.62 63.848 161.769 63.6187 161.877 63.3633C161.984 63.1048 162.038 62.8355 162.038 62.5554C162.038 62.1861 161.949 61.8398 161.771 61.5167C161.595 61.1935 161.352 60.9319 161.041 60.7319C160.733 60.5318 160.383 60.4318 159.989 60.4318ZM170.852 69.1662C170.403 69.1662 169.995 69.0816 169.629 68.9123C169.263 68.7399 168.972 68.4922 168.756 68.169C168.541 67.8428 168.433 67.4489 168.433 66.9872C168.433 66.581 168.513 66.2517 168.673 65.9993C168.833 65.7438 169.047 65.5438 169.315 65.3991C169.583 65.2545 169.878 65.1468 170.201 65.076C170.528 65.0021 170.855 64.9437 171.185 64.9006C171.616 64.8452 171.965 64.8036 172.233 64.7759C172.504 64.7451 172.7 64.6944 172.824 64.6236C172.95 64.5528 173.013 64.4297 173.013 64.2543V64.2173C173.013 63.7618 172.888 63.4079 172.639 63.1555C172.393 62.9032 172.019 62.777 171.517 62.777C170.997 62.777 170.589 62.8909 170.294 63.1186C169.998 63.3464 169.791 63.5895 169.671 63.848L168.636 63.4787C168.821 63.0478 169.067 62.7124 169.375 62.4723C169.686 62.2292 170.024 62.0599 170.391 61.9645C170.76 61.866 171.123 61.8168 171.48 61.8168C171.708 61.8168 171.97 61.8445 172.265 61.8999C172.564 61.9522 172.851 62.0614 173.128 62.2276C173.408 62.3938 173.641 62.6446 173.825 62.9801C174.01 63.3156 174.102 63.7649 174.102 64.3281V69H173.013V68.0398H172.957C172.884 68.1937 172.761 68.3583 172.588 68.5337C172.416 68.7092 172.187 68.8584 171.9 68.9815C171.614 69.1046 171.265 69.1662 170.852 69.1662ZM171.019 68.1875C171.449 68.1875 171.813 68.1029 172.108 67.9336C172.407 67.7643 172.631 67.5458 172.782 67.2781C172.936 67.0103 173.013 66.7287 173.013 66.4332V65.4361C172.967 65.4915 172.865 65.5423 172.708 65.5884C172.554 65.6315 172.376 65.67 172.173 65.7038C171.973 65.7346 171.777 65.7623 171.586 65.7869C171.399 65.8085 171.246 65.8269 171.129 65.8423C170.846 65.8793 170.582 65.9393 170.335 66.0224C170.092 66.1024 169.895 66.224 169.744 66.3871C169.597 66.5471 169.523 66.7656 169.523 67.0426C169.523 67.4212 169.663 67.7074 169.943 67.9013C170.226 68.0921 170.585 68.1875 171.019 68.1875ZM176.903 61.9091L178.602 64.8082L180.301 61.9091H181.557L179.267 65.4545L181.557 69H180.301L178.602 66.2486L176.903 69H175.648L177.901 65.4545L175.648 61.9091H176.903ZM183.111 69V61.9091H184.201V69H183.111ZM183.665 60.7273C183.453 60.7273 183.27 60.6549 183.116 60.5103C182.965 60.3656 182.89 60.1918 182.89 59.9886C182.89 59.7855 182.965 59.6116 183.116 59.467C183.27 59.3223 183.453 59.25 183.665 59.25C183.878 59.25 184.059 59.3223 184.21 59.467C184.364 59.6116 184.441 59.7855 184.441 59.9886C184.441 60.1918 184.364 60.3656 184.21 60.5103C184.059 60.6549 183.878 60.7273 183.665 60.7273ZM191.219 63.4972L190.24 63.7741C190.179 63.611 190.088 63.4525 189.968 63.2987C189.851 63.1417 189.691 63.0124 189.488 62.9109C189.285 62.8093 189.025 62.7585 188.708 62.7585C188.274 62.7585 187.912 62.8585 187.623 63.0586C187.337 63.2556 187.194 63.5064 187.194 63.8111C187.194 64.0819 187.292 64.2958 187.489 64.4528C187.686 64.6097 187.994 64.7405 188.412 64.8452L189.465 65.1037C190.099 65.2576 190.571 65.493 190.882 65.81C191.193 66.1239 191.348 66.5286 191.348 67.0241C191.348 67.4304 191.231 67.7936 190.998 68.1136C190.767 68.4337 190.444 68.6861 190.028 68.8707C189.613 69.0554 189.129 69.1477 188.578 69.1477C187.855 69.1477 187.257 68.9908 186.783 68.6768C186.309 68.3629 186.009 67.9044 185.882 67.3011L186.917 67.0426C187.015 67.4242 187.201 67.7105 187.475 67.9013C187.752 68.0921 188.114 68.1875 188.56 68.1875C189.068 68.1875 189.471 68.0798 189.77 67.8643C190.071 67.6458 190.222 67.3842 190.222 67.0795C190.222 66.8333 190.136 66.6271 189.963 66.4609C189.791 66.2917 189.526 66.1655 189.169 66.0824L187.988 65.8054C187.338 65.6515 186.861 65.413 186.556 65.0898C186.255 64.7636 186.104 64.3558 186.104 63.8665C186.104 63.4664 186.216 63.1125 186.441 62.8047C186.669 62.4969 186.978 62.2553 187.369 62.0799C187.763 61.9045 188.209 61.8168 188.708 61.8168C189.409 61.8168 189.96 61.9706 190.36 62.2784C190.764 62.5862 191.05 62.9924 191.219 63.4972ZM201.667 63.4972L200.689 63.7741C200.627 63.611 200.536 63.4525 200.416 63.2987C200.299 63.1417 200.139 63.0124 199.936 62.9109C199.733 62.8093 199.473 62.7585 199.156 62.7585C198.722 62.7585 198.36 62.8585 198.071 63.0586C197.785 63.2556 197.642 63.5064 197.642 63.8111C197.642 64.0819 197.74 64.2958 197.937 64.4528C198.134 64.6097 198.442 64.7405 198.861 64.8452L199.913 65.1037C200.547 65.2576 201.02 65.493 201.33 65.81C201.641 66.1239 201.797 66.5286 201.797 67.0241C201.797 67.4304 201.68 67.7936 201.446 68.1136C201.215 68.4337 200.892 68.6861 200.476 68.8707C200.061 69.0554 199.578 69.1477 199.027 69.1477C198.303 69.1477 197.705 68.9908 197.231 68.6768C196.757 68.3629 196.457 67.9044 196.331 67.3011L197.365 67.0426C197.463 67.4242 197.649 67.7105 197.923 67.9013C198.2 68.0921 198.562 68.1875 199.008 68.1875C199.516 68.1875 199.919 68.0798 200.218 67.8643C200.519 67.6458 200.67 67.3842 200.67 67.0795C200.67 66.8333 200.584 66.6271 200.412 66.4609C200.239 66.2917 199.975 66.1655 199.618 66.0824L198.436 65.8054C197.786 65.6515 197.309 65.413 197.005 65.0898C196.703 64.7636 196.552 64.3558 196.552 63.8665C196.552 63.4664 196.665 63.1125 196.889 62.8047C197.117 62.4969 197.426 62.2553 197.817 62.0799C198.211 61.9045 198.657 61.8168 199.156 61.8168C199.858 61.8168 200.409 61.9706 200.809 62.2784C201.212 62.5862 201.498 62.9924 201.667 63.4972ZM206.41 69.1477C205.726 69.1477 205.137 68.9969 204.642 68.6953C204.149 68.3906 203.769 67.9659 203.501 67.4212C203.237 66.8733 203.104 66.2363 203.104 65.5099C203.104 64.7836 203.237 64.1435 203.501 63.5895C203.769 63.0324 204.141 62.5985 204.618 62.2876C205.099 61.9737 205.659 61.8168 206.299 61.8168C206.668 61.8168 207.033 61.8783 207.393 62.0014C207.753 62.1245 208.081 62.3246 208.376 62.6016C208.672 62.8755 208.907 63.2386 209.083 63.6911C209.258 64.1435 209.346 64.7005 209.346 65.3622V65.8239H203.88V64.8821H208.238C208.238 64.482 208.158 64.125 207.998 63.8111C207.841 63.4972 207.616 63.2494 207.324 63.0678C207.034 62.8862 206.693 62.7955 206.299 62.7955C205.865 62.7955 205.489 62.9032 205.172 63.1186C204.858 63.331 204.617 63.608 204.448 63.9496C204.278 64.2912 204.194 64.6574 204.194 65.0483V65.6761C204.194 66.2116 204.286 66.6656 204.471 67.038C204.658 67.4073 204.919 67.6889 205.251 67.8828C205.583 68.0736 205.97 68.169 206.41 68.169C206.696 68.169 206.954 68.129 207.185 68.049C207.419 67.9659 207.621 67.8428 207.79 67.6797C207.959 67.5135 208.09 67.3073 208.182 67.0611L209.235 67.3565C209.124 67.7135 208.938 68.0275 208.676 68.2983C208.415 68.5661 208.092 68.7753 207.707 68.9261C207.322 69.0739 206.89 69.1477 206.41 69.1477ZM212.093 64.7344V69H211.003V61.9091H212.056V63.017H212.148C212.314 62.657 212.566 62.3677 212.905 62.1491C213.244 61.9276 213.681 61.8168 214.216 61.8168C214.696 61.8168 215.116 61.9152 215.476 62.1122C215.836 62.3061 216.117 62.6016 216.317 62.9986C216.517 63.3925 216.617 63.8911 216.617 64.4943V69H215.527V64.5682C215.527 64.0111 215.383 63.5772 215.093 63.2663C214.804 62.9524 214.407 62.7955 213.902 62.7955C213.554 62.7955 213.244 62.8709 212.97 63.0217C212.699 63.1725 212.485 63.3925 212.328 63.6818C212.171 63.9711 212.093 64.322 212.093 64.7344ZM223.63 63.4972L222.652 63.7741C222.59 63.611 222.499 63.4525 222.379 63.2987C222.262 63.1417 222.102 63.0124 221.899 62.9109C221.696 62.8093 221.436 62.7585 221.119 62.7585C220.685 62.7585 220.323 62.8585 220.034 63.0586C219.748 63.2556 219.605 63.5064 219.605 63.8111C219.605 64.0819 219.703 64.2958 219.9 64.4528C220.097 64.6097 220.405 64.7405 220.823 64.8452L221.876 65.1037C222.51 65.2576 222.982 65.493 223.293 65.81C223.604 66.1239 223.759 66.5286 223.759 67.0241C223.759 67.4304 223.643 67.7936 223.409 68.1136C223.178 68.4337 222.855 68.6861 222.439 68.8707C222.024 69.0554 221.541 69.1477 220.99 69.1477C220.266 69.1477 219.668 68.9908 219.194 68.6768C218.72 68.3629 218.42 67.9044 218.294 67.3011L219.328 67.0426C219.426 67.4242 219.612 67.7105 219.886 67.9013C220.163 68.0921 220.525 68.1875 220.971 68.1875C221.479 68.1875 221.882 68.0798 222.181 67.8643C222.482 67.6458 222.633 67.3842 222.633 67.0795C222.633 66.8333 222.547 66.6271 222.375 66.4609C222.202 66.2917 221.938 66.1655 221.581 66.0824L220.399 65.8054C219.749 65.6515 219.272 65.413 218.968 65.0898C218.666 64.7636 218.515 64.3558 218.515 63.8665C218.515 63.4664 218.628 63.1125 218.852 62.8047C219.08 62.4969 219.389 62.2553 219.78 62.0799C220.174 61.9045 220.62 61.8168 221.119 61.8168C221.821 61.8168 222.371 61.9706 222.772 62.2784C223.175 62.5862 223.461 62.9924 223.63 63.4972ZM228.28 69.1477C227.64 69.1477 227.078 68.9954 226.595 68.6907C226.115 68.386 225.74 67.9598 225.469 67.4119C225.201 66.8641 225.067 66.224 225.067 65.4915C225.067 64.7528 225.201 64.1081 225.469 63.5572C225.74 63.0063 226.115 62.5785 226.595 62.2738C227.078 61.9691 227.64 61.8168 228.28 61.8168C228.92 61.8168 229.48 61.9691 229.961 62.2738C230.444 62.5785 230.819 63.0063 231.087 63.5572C231.358 64.1081 231.493 64.7528 231.493 65.4915C231.493 66.224 231.358 66.8641 231.087 67.4119C230.819 67.9598 230.444 68.386 229.961 68.6907C229.48 68.9954 228.92 69.1477 228.28 69.1477ZM228.28 68.169C228.766 68.169 229.167 68.0444 229.48 67.7951C229.794 67.5458 230.027 67.218 230.178 66.8118C230.328 66.4055 230.404 65.9654 230.404 65.4915C230.404 65.0175 230.328 64.5759 230.178 64.1665C230.027 63.7572 229.794 63.4264 229.48 63.174C229.167 62.9216 228.766 62.7955 228.28 62.7955C227.794 62.7955 227.394 62.9216 227.08 63.174C226.766 63.4264 226.534 63.7572 226.383 64.1665C226.232 64.5759 226.157 65.0175 226.157 65.4915C226.157 65.9654 226.232 66.4055 226.383 66.8118C226.534 67.218 226.766 67.5458 227.08 67.7951C227.394 68.0444 227.794 68.169 228.28 68.169ZM233.156 69V61.9091H234.209V62.9801H234.283C234.412 62.6293 234.646 62.3446 234.984 62.1261C235.323 61.9076 235.705 61.7983 236.129 61.7983C236.209 61.7983 236.309 61.7998 236.429 61.8029C236.549 61.806 236.64 61.8106 236.702 61.8168V62.9247C236.665 62.9155 236.58 62.9016 236.448 62.8832C236.319 62.8616 236.182 62.8509 236.037 62.8509C235.692 62.8509 235.385 62.9232 235.114 63.0678C234.846 63.2094 234.634 63.4064 234.477 63.6587C234.323 63.908 234.246 64.1927 234.246 64.5128V69H233.156Z" fill="black"/>
<rect x="315" y="7" width="57" height="34" fill="#6F4491"/>
<rect x="325" y="17" width="8" height="15" fill="#3A3A3A"/>
<path d="M294.145 65V55.5455H297.339C298.081 55.5455 298.688 55.6793 299.158 55.9471C299.632 56.2118 299.983 56.5703 300.211 57.0227C300.439 57.4751 300.553 57.9799 300.553 58.5369C300.553 59.094 300.439 59.6003 300.211 60.0558C299.986 60.5112 299.638 60.8744 299.168 61.1452C298.697 61.413 298.094 61.5469 297.358 61.5469H295.068V60.5312H297.321C297.829 60.5312 298.237 60.4435 298.544 60.2681C298.852 60.0927 299.075 59.8557 299.214 59.5572C299.355 59.2556 299.426 58.9155 299.426 58.5369C299.426 58.1584 299.355 57.8198 299.214 57.5213C299.075 57.2228 298.851 56.9889 298.54 56.8196C298.229 56.6473 297.817 56.5611 297.303 56.5611H295.29V65H294.145ZM302.249 65V57.9091H303.302V58.9801H303.376C303.505 58.6293 303.739 58.3446 304.077 58.1261C304.416 57.9076 304.797 57.7983 305.222 57.7983C305.302 57.7983 305.402 57.7998 305.522 57.8029C305.642 57.806 305.733 57.8106 305.795 57.8168V58.9247C305.758 58.9155 305.673 58.9016 305.541 58.8832C305.411 58.8616 305.274 58.8509 305.13 58.8509C304.785 58.8509 304.477 58.9232 304.206 59.0678C303.939 59.2094 303.726 59.4064 303.569 59.6587C303.416 59.908 303.339 60.1927 303.339 60.5128V65H302.249ZM309.843 65.1477C309.16 65.1477 308.571 64.9969 308.075 64.6953C307.583 64.3906 307.203 63.9659 306.935 63.4212C306.67 62.8733 306.538 62.2363 306.538 61.5099C306.538 60.7836 306.67 60.1435 306.935 59.5895C307.203 59.0324 307.575 58.5985 308.052 58.2876C308.532 57.9737 309.092 57.8168 309.732 57.8168C310.102 57.8168 310.466 57.8783 310.827 58.0014C311.187 58.1245 311.514 58.3246 311.81 58.6016C312.105 58.8755 312.341 59.2386 312.516 59.6911C312.692 60.1435 312.779 60.7005 312.779 61.3622V61.8239H307.313V60.8821H311.671C311.671 60.482 311.591 60.125 311.431 59.8111C311.274 59.4972 311.05 59.2494 310.757 59.0678C310.468 58.8862 310.126 58.7955 309.732 58.7955C309.298 58.7955 308.923 58.9032 308.606 59.1186C308.292 59.331 308.05 59.608 307.881 59.9496C307.712 60.2912 307.627 60.6574 307.627 61.0483V61.6761C307.627 62.2116 307.72 62.6656 307.904 63.038C308.092 63.4073 308.352 63.6889 308.684 63.8828C309.017 64.0736 309.403 64.169 309.843 64.169C310.129 64.169 310.388 64.129 310.619 64.049C310.853 63.9659 311.054 63.8428 311.224 63.6797C311.393 63.5135 311.524 63.3073 311.616 63.0611L312.669 63.3565C312.558 63.7135 312.372 64.0275 312.11 64.2983C311.848 64.5661 311.525 64.7753 311.14 64.9261C310.756 65.0739 310.323 65.1477 309.843 65.1477ZM319.459 59.4972L318.481 59.7741C318.419 59.611 318.328 59.4525 318.208 59.2987C318.091 59.1417 317.931 59.0124 317.728 58.9109C317.525 58.8093 317.265 58.7585 316.948 58.7585C316.514 58.7585 316.152 58.8585 315.863 59.0586C315.577 59.2556 315.434 59.5064 315.434 59.8111C315.434 60.0819 315.532 60.2958 315.729 60.4528C315.926 60.6097 316.234 60.7405 316.653 60.8452L317.705 61.1037C318.339 61.2576 318.811 61.493 319.122 61.81C319.433 62.1239 319.589 62.5286 319.589 63.0241C319.589 63.4304 319.472 63.7936 319.238 64.1136C319.007 64.4337 318.684 64.6861 318.268 64.8707C317.853 65.0554 317.37 65.1477 316.819 65.1477C316.095 65.1477 315.497 64.9908 315.023 64.6768C314.549 64.3629 314.249 63.9044 314.123 63.3011L315.157 63.0426C315.255 63.4242 315.441 63.7105 315.715 63.9013C315.992 64.0921 316.354 64.1875 316.8 64.1875C317.308 64.1875 317.711 64.0798 318.01 63.8643C318.311 63.6458 318.462 63.3842 318.462 63.0795C318.462 62.8333 318.376 62.6271 318.204 62.4609C318.031 62.2917 317.767 62.1655 317.41 62.0824L316.228 61.8054C315.578 61.6515 315.101 61.413 314.797 61.0898C314.495 60.7636 314.344 60.3558 314.344 59.8665C314.344 59.4664 314.457 59.1125 314.681 58.8047C314.909 58.4969 315.218 58.2553 315.609 58.0799C316.003 57.9045 316.449 57.8168 316.948 57.8168C317.65 57.8168 318.201 57.9706 318.601 58.2784C319.004 58.5862 319.29 58.9924 319.459 59.4972ZM326.251 59.4972L325.273 59.7741C325.211 59.611 325.12 59.4525 325 59.2987C324.883 59.1417 324.723 59.0124 324.52 58.9109C324.317 58.8093 324.057 58.7585 323.74 58.7585C323.306 58.7585 322.944 58.8585 322.655 59.0586C322.369 59.2556 322.226 59.5064 322.226 59.8111C322.226 60.0819 322.324 60.2958 322.521 60.4528C322.718 60.6097 323.026 60.7405 323.445 60.8452L324.497 61.1037C325.131 61.2576 325.603 61.493 325.914 61.81C326.225 62.1239 326.381 62.5286 326.381 63.0241C326.381 63.4304 326.264 63.7936 326.03 64.1136C325.799 64.4337 325.476 64.6861 325.06 64.8707C324.645 65.0554 324.162 65.1477 323.611 65.1477C322.887 65.1477 322.289 64.9908 321.815 64.6768C321.341 64.3629 321.041 63.9044 320.915 63.3011L321.949 63.0426C322.047 63.4242 322.233 63.7105 322.507 63.9013C322.784 64.0921 323.146 64.1875 323.592 64.1875C324.1 64.1875 324.503 64.0798 324.802 63.8643C325.103 63.6458 325.254 63.3842 325.254 63.0795C325.254 62.8333 325.168 62.6271 324.996 62.4609C324.823 62.2917 324.559 62.1655 324.202 62.0824L323.02 61.8054C322.37 61.6515 321.893 61.413 321.589 61.0898C321.287 60.7636 321.136 60.3558 321.136 59.8665C321.136 59.4664 321.249 59.1125 321.473 58.8047C321.701 58.4969 322.01 58.2553 322.401 58.0799C322.795 57.9045 323.241 57.8168 323.74 57.8168C324.442 57.8168 324.993 57.9706 325.393 58.2784C325.796 58.5862 326.082 58.9924 326.251 59.4972ZM332.489 62.1009V57.9091H333.579V65H332.489V63.7997H332.415C332.249 64.1598 331.991 64.466 331.64 64.7184C331.289 64.9677 330.846 65.0923 330.31 65.0923C329.867 65.0923 329.473 64.9954 329.129 64.8015C328.784 64.6045 328.513 64.3091 328.316 63.9151C328.119 63.5181 328.021 63.018 328.021 62.4148V57.9091H329.11V62.3409C329.11 62.858 329.255 63.2704 329.544 63.5781C329.836 63.8859 330.209 64.0398 330.661 64.0398C330.932 64.0398 331.208 63.9705 331.488 63.832C331.771 63.6935 332.008 63.4812 332.199 63.195C332.392 62.9087 332.489 62.544 332.489 62.1009ZM335.574 65V57.9091H336.627V58.9801H336.701C336.83 58.6293 337.064 58.3446 337.402 58.1261C337.741 57.9076 338.123 57.7983 338.547 57.7983C338.627 57.7983 338.727 57.7998 338.847 57.8029C338.967 57.806 339.058 57.8106 339.12 57.8168V58.9247C339.083 58.9155 338.998 58.9016 338.866 58.8832C338.737 58.8616 338.6 58.8509 338.455 58.8509C338.11 58.8509 337.803 58.9232 337.532 59.0678C337.264 59.2094 337.052 59.4064 336.895 59.6587C336.741 59.908 336.664 60.1927 336.664 60.5128V65H335.574ZM343.168 65.1477C342.485 65.1477 341.896 64.9969 341.4 64.6953C340.908 64.3906 340.528 63.9659 340.26 63.4212C339.995 62.8733 339.863 62.2363 339.863 61.5099C339.863 60.7836 339.995 60.1435 340.26 59.5895C340.528 59.0324 340.9 58.5985 341.377 58.2876C341.857 57.9737 342.417 57.8168 343.058 57.8168C343.427 57.8168 343.792 57.8783 344.152 58.0014C344.512 58.1245 344.84 58.3246 345.135 58.6016C345.43 58.8755 345.666 59.2386 345.841 59.6911C346.017 60.1435 346.104 60.7005 346.104 61.3622V61.8239H340.639V60.8821H344.997C344.997 60.482 344.917 60.125 344.756 59.8111C344.6 59.4972 344.375 59.2494 344.082 59.0678C343.793 58.8862 343.452 58.7955 343.058 58.7955C342.624 58.7955 342.248 58.9032 341.931 59.1186C341.617 59.331 341.376 59.608 341.206 59.9496C341.037 60.2912 340.953 60.6574 340.953 61.0483V61.6761C340.953 62.2116 341.045 62.6656 341.229 63.038C341.417 63.4073 341.677 63.6889 342.01 63.8828C342.342 64.0736 342.728 64.169 343.168 64.169C343.455 64.169 343.713 64.129 343.944 64.049C344.178 63.9659 344.379 63.8428 344.549 63.6797C344.718 63.5135 344.849 63.3073 344.941 63.0611L345.994 63.3565C345.883 63.7135 345.697 64.0275 345.435 64.2983C345.174 64.5661 344.85 64.7753 344.466 64.9261C344.081 65.0739 343.649 65.1477 343.168 65.1477ZM356.736 57.9091C356.681 57.4413 356.456 57.0781 356.062 56.8196C355.668 56.5611 355.185 56.4318 354.613 56.4318C354.194 56.4318 353.828 56.4995 353.514 56.6349C353.203 56.7704 352.96 56.9566 352.785 57.1935C352.612 57.4305 352.526 57.6998 352.526 58.0014C352.526 58.2538 352.586 58.4708 352.706 58.6523C352.829 58.8308 352.986 58.9801 353.177 59.1001C353.368 59.2171 353.568 59.314 353.777 59.391C353.986 59.4648 354.179 59.5249 354.354 59.571L355.314 59.8295C355.561 59.8942 355.834 59.9834 356.136 60.0973C356.441 60.2112 356.732 60.3666 357.009 60.5636C357.289 60.7575 357.52 61.0067 357.701 61.3114C357.883 61.6161 357.973 61.9901 357.973 62.4332C357.973 62.9441 357.84 63.4058 357.572 63.8182C357.307 64.2306 356.919 64.5584 356.408 64.8015C355.901 65.0446 355.284 65.1662 354.557 65.1662C353.88 65.1662 353.294 65.0569 352.798 64.8384C352.306 64.6199 351.918 64.3152 351.635 63.9244C351.355 63.5335 351.196 63.0795 351.16 62.5625H352.341C352.372 62.9195 352.492 63.215 352.701 63.4489C352.914 63.6797 353.182 63.852 353.505 63.9659C353.831 64.0767 354.182 64.1321 354.557 64.1321C354.994 64.1321 355.387 64.0613 355.734 63.9197C356.082 63.7751 356.358 63.575 356.561 63.3196C356.764 63.0611 356.866 62.7595 356.866 62.4148C356.866 62.1009 356.778 61.8454 356.602 61.6484C356.427 61.4515 356.196 61.2914 355.91 61.1683C355.624 61.0452 355.314 60.9375 354.982 60.8452L353.819 60.5128C353.08 60.3004 352.495 59.9973 352.064 59.6033C351.633 59.2094 351.418 58.6939 351.418 58.0568C351.418 57.5275 351.561 57.0658 351.847 56.6719C352.137 56.2749 352.524 55.9671 353.011 55.7486C353.5 55.527 354.046 55.4162 354.65 55.4162C355.259 55.4162 355.801 55.5254 356.275 55.744C356.749 55.9594 357.124 56.2549 357.401 56.6303C357.681 57.0058 357.829 57.4321 357.844 57.9091H356.736ZM362.681 65.1477C361.998 65.1477 361.408 64.9969 360.913 64.6953C360.421 64.3906 360.04 63.9659 359.773 63.4212C359.508 62.8733 359.376 62.2363 359.376 61.5099C359.376 60.7836 359.508 60.1435 359.773 59.5895C360.04 59.0324 360.413 58.5985 360.89 58.2876C361.37 57.9737 361.93 57.8168 362.57 57.8168C362.94 57.8168 363.304 57.8783 363.664 58.0014C364.025 58.1245 364.352 58.3246 364.648 58.6016C364.943 58.8755 365.179 59.2386 365.354 59.6911C365.529 60.1435 365.617 60.7005 365.617 61.3622V61.8239H360.151V60.8821H364.509C364.509 60.482 364.429 60.125 364.269 59.8111C364.112 59.4972 363.888 59.2494 363.595 59.0678C363.306 58.8862 362.964 58.7955 362.57 58.7955C362.136 58.7955 361.761 58.9032 361.444 59.1186C361.13 59.331 360.888 59.608 360.719 59.9496C360.55 60.2912 360.465 60.6574 360.465 61.0483V61.6761C360.465 62.2116 360.558 62.6656 360.742 63.038C360.93 63.4073 361.19 63.6889 361.522 63.8828C361.855 64.0736 362.241 64.169 362.681 64.169C362.967 64.169 363.226 64.129 363.457 64.049C363.691 63.9659 363.892 63.8428 364.061 63.6797C364.231 63.5135 364.362 63.3073 364.454 63.0611L365.506 63.3565C365.396 63.7135 365.209 64.0275 364.948 64.2983C364.686 64.5661 364.363 64.7753 363.978 64.9261C363.594 65.0739 363.161 65.1477 362.681 65.1477ZM368.364 60.7344V65H367.275V57.9091H368.327V59.017H368.419C368.586 58.657 368.838 58.3677 369.176 58.1491C369.515 57.9276 369.952 57.8168 370.488 57.8168C370.968 57.8168 371.388 57.9152 371.748 58.1122C372.108 58.3061 372.388 58.6016 372.588 58.9986C372.788 59.3925 372.888 59.8911 372.888 60.4943V65H371.799V60.5682C371.799 60.0111 371.654 59.5772 371.365 59.2663C371.075 58.9524 370.678 58.7955 370.174 58.7955C369.826 58.7955 369.515 58.8709 369.241 59.0217C368.97 59.1725 368.756 59.3925 368.599 59.6818C368.442 59.9711 368.364 60.322 368.364 60.7344ZM379.902 59.4972L378.923 59.7741C378.861 59.611 378.771 59.4525 378.651 59.2987C378.534 59.1417 378.374 59.0124 378.171 58.9109C377.967 58.8093 377.707 58.7585 377.39 58.7585C376.956 58.7585 376.595 58.8585 376.305 59.0586C376.019 59.2556 375.876 59.5064 375.876 59.8111C375.876 60.0819 375.975 60.2958 376.172 60.4528C376.369 60.6097 376.676 60.7405 377.095 60.8452L378.147 61.1037C378.781 61.2576 379.254 61.493 379.565 61.81C379.876 62.1239 380.031 62.5286 380.031 63.0241C380.031 63.4304 379.914 63.7936 379.68 64.1136C379.449 64.4337 379.126 64.6861 378.711 64.8707C378.295 65.0554 377.812 65.1477 377.261 65.1477C376.538 65.1477 375.939 64.9908 375.465 64.6768C374.991 64.3629 374.691 63.9044 374.565 63.3011L375.599 63.0426C375.698 63.4242 375.884 63.7105 376.158 63.9013C376.435 64.0921 376.796 64.1875 377.243 64.1875C377.75 64.1875 378.154 64.0798 378.452 63.8643C378.754 63.6458 378.905 63.3842 378.905 63.0795C378.905 62.8333 378.818 62.6271 378.646 62.4609C378.474 62.2917 378.209 62.1655 377.852 62.0824L376.67 61.8054C376.021 61.6515 375.544 61.413 375.239 61.0898C374.937 60.7636 374.787 60.3558 374.787 59.8665C374.787 59.4664 374.899 59.1125 375.124 58.8047C375.351 58.4969 375.661 58.2553 376.052 58.0799C376.446 57.9045 376.892 57.8168 377.39 57.8168C378.092 57.8168 378.643 57.9706 379.043 58.2784C379.446 58.5862 379.732 58.9924 379.902 59.4972ZM384.552 65.1477C383.912 65.1477 383.35 64.9954 382.867 64.6907C382.387 64.386 382.011 63.9598 381.74 63.4119C381.472 62.8641 381.339 62.224 381.339 61.4915C381.339 60.7528 381.472 60.1081 381.74 59.5572C382.011 59.0063 382.387 58.5785 382.867 58.2738C383.35 57.9691 383.912 57.8168 384.552 57.8168C385.192 57.8168 385.752 57.9691 386.232 58.2738C386.715 58.5785 387.091 59.0063 387.358 59.5572C387.629 60.1081 387.765 60.7528 387.765 61.4915C387.765 62.224 387.629 62.8641 387.358 63.4119C387.091 63.9598 386.715 64.386 386.232 64.6907C385.752 64.9954 385.192 65.1477 384.552 65.1477ZM384.552 64.169C385.038 64.169 385.438 64.0444 385.752 63.7951C386.066 63.5458 386.298 63.218 386.449 62.8118C386.6 62.4055 386.675 61.9654 386.675 61.4915C386.675 61.0175 386.6 60.5759 386.449 60.1665C386.298 59.7572 386.066 59.4264 385.752 59.174C385.438 58.9216 385.038 58.7955 384.552 58.7955C384.065 58.7955 383.665 58.9216 383.351 59.174C383.037 59.4264 382.805 59.7572 382.654 60.1665C382.503 60.5759 382.428 61.0175 382.428 61.4915C382.428 61.9654 382.503 62.4055 382.654 62.8118C382.805 63.218 383.037 63.5458 383.351 63.7951C383.665 64.0444 384.065 64.169 384.552 64.169ZM389.428 65V57.9091H390.48V58.9801H390.554C390.684 58.6293 390.917 58.3446 391.256 58.1261C391.594 57.9076 391.976 57.7983 392.401 57.7983C392.481 57.7983 392.581 57.7998 392.701 57.8029C392.821 57.806 392.912 57.8106 392.973 57.8168V58.9247C392.936 58.9155 392.852 58.9016 392.719 58.8832C392.59 58.8616 392.453 58.8509 392.309 58.8509C391.964 58.8509 391.656 58.9232 391.385 59.0678C391.117 59.2094 390.905 59.4064 390.748 59.6587C390.594 59.908 390.517 60.1927 390.517 60.5128V65H389.428Z" fill="black"/>
<path d="M278.002 129.937C277.967 130.488 278.386 130.963 278.937 130.998L287.919 131.564C288.47 131.599 288.945 131.181 288.98 130.629C289.015 130.078 288.596 129.603 288.045 129.568L280.061 129.065L280.564 121.081C280.599 120.53 280.181 120.055 279.629 120.02C279.078 119.985 278.603 120.404 278.568 120.955L278.002 129.937ZM337.339 77.2498L278.339 129.25L279.661 130.75L338.661 78.7502L337.339 77.2498Z" fill="black"/>
<path d="M324.29 104.545V114H323.145V104.545H324.29ZM326.419 114V113.169L329.54 109.753C329.906 109.353 330.208 109.005 330.445 108.71C330.682 108.411 330.857 108.131 330.971 107.869C331.088 107.605 331.146 107.328 331.146 107.038C331.146 106.706 331.066 106.418 330.906 106.175C330.749 105.932 330.534 105.744 330.26 105.612C329.986 105.48 329.678 105.413 329.337 105.413C328.974 105.413 328.657 105.489 328.386 105.64C328.118 105.787 327.91 105.995 327.763 106.263C327.618 106.531 327.546 106.844 327.546 107.205H326.456C326.456 106.651 326.584 106.164 326.839 105.746C327.095 105.327 327.442 105.001 327.883 104.767C328.326 104.533 328.823 104.416 329.374 104.416C329.928 104.416 330.419 104.533 330.846 104.767C331.274 105.001 331.61 105.316 331.853 105.713C332.096 106.11 332.217 106.552 332.217 107.038C332.217 107.386 332.154 107.726 332.028 108.059C331.905 108.388 331.69 108.756 331.382 109.162C331.077 109.565 330.654 110.058 330.112 110.639L327.989 112.911V112.984H332.384V114H326.419ZM342.064 107.5H340.919C340.852 107.171 340.733 106.881 340.564 106.632C340.398 106.383 340.195 106.174 339.955 106.004C339.718 105.832 339.455 105.703 339.165 105.616C338.876 105.53 338.574 105.487 338.26 105.487C337.688 105.487 337.169 105.632 336.705 105.921C336.243 106.21 335.875 106.637 335.601 107.2C335.33 107.763 335.195 108.454 335.195 109.273C335.195 110.091 335.33 110.782 335.601 111.346C335.875 111.909 336.243 112.335 336.705 112.624C337.169 112.914 337.688 113.058 338.26 113.058C338.574 113.058 338.876 113.015 339.165 112.929C339.455 112.843 339.718 112.715 339.955 112.546C340.195 112.373 340.398 112.163 340.564 111.913C340.733 111.661 340.852 111.372 340.919 111.045H342.064C341.978 111.529 341.821 111.961 341.593 112.343C341.366 112.724 341.083 113.049 340.744 113.317C340.406 113.581 340.025 113.783 339.604 113.922C339.185 114.06 338.737 114.129 338.26 114.129C337.454 114.129 336.737 113.932 336.109 113.538C335.481 113.144 334.987 112.584 334.627 111.858C334.267 111.132 334.087 110.27 334.087 109.273C334.087 108.276 334.267 107.414 334.627 106.688C334.987 105.961 335.481 105.401 336.109 105.007C336.737 104.613 337.454 104.416 338.26 104.416C338.737 104.416 339.185 104.485 339.604 104.624C340.025 104.762 340.406 104.966 340.744 105.233C341.083 105.498 341.366 105.821 341.593 106.203C341.821 106.581 341.978 107.014 342.064 107.5Z" fill="black"/>
<rect x="3" y="218" width="59" height="58" fill="#363B59"/>
<rect x="17" y="230" width="47" height="33" fill="#D9D9D9"/>
<path d="M14.3153 287.909C14.2599 287.441 14.0353 287.078 13.6413 286.82C13.2474 286.561 12.7642 286.432 12.1918 286.432C11.7732 286.432 11.407 286.5 11.093 286.635C10.7822 286.77 10.5391 286.957 10.3636 287.194C10.1913 287.431 10.1051 287.7 10.1051 288.001C10.1051 288.254 10.1651 288.471 10.2852 288.652C10.4083 288.831 10.5652 288.98 10.756 289.1C10.9469 289.217 11.1469 289.314 11.3562 289.391C11.5655 289.465 11.7578 289.525 11.9332 289.571L12.8935 289.83C13.1397 289.894 13.4136 289.983 13.7152 290.097C14.0199 290.211 14.3107 290.367 14.5877 290.564C14.8678 290.757 15.0986 291.007 15.2802 291.311C15.4618 291.616 15.5526 291.99 15.5526 292.433C15.5526 292.944 15.4187 293.406 15.1509 293.818C14.8862 294.231 14.4985 294.558 13.9876 294.801C13.4798 295.045 12.8627 295.166 12.1364 295.166C11.4593 295.166 10.873 295.057 10.3775 294.838C9.88506 294.62 9.49728 294.315 9.21413 293.924C8.93407 293.533 8.77557 293.08 8.73864 292.562H9.92045C9.95123 292.92 10.0713 293.215 10.2805 293.449C10.4929 293.68 10.7607 293.852 11.0838 293.966C11.41 294.077 11.7609 294.132 12.1364 294.132C12.5734 294.132 12.9658 294.061 13.3136 293.92C13.6613 293.775 13.9368 293.575 14.1399 293.32C14.343 293.061 14.4446 292.759 14.4446 292.415C14.4446 292.101 14.3569 291.845 14.1815 291.648C14.006 291.451 13.7752 291.291 13.489 291.168C13.2028 291.045 12.8935 290.937 12.5611 290.845L11.3977 290.513C10.6591 290.3 10.0743 289.997 9.64347 289.603C9.21259 289.209 8.99716 288.694 8.99716 288.057C8.99716 287.527 9.14027 287.066 9.42649 286.672C9.71579 286.275 10.1036 285.967 10.5898 285.749C11.0792 285.527 11.6255 285.416 12.2287 285.416C12.8381 285.416 13.3797 285.525 13.8537 285.744C14.3277 285.959 14.7031 286.255 14.9801 286.63C15.2602 287.006 15.4079 287.432 15.4233 287.909H14.3153ZM20.3525 295H17.4349V285.545H20.4818C21.3989 285.545 22.1837 285.735 22.8362 286.113C23.4887 286.489 23.9888 287.029 24.3366 287.734C24.6843 288.435 24.8582 289.276 24.8582 290.254C24.8582 291.239 24.6828 292.087 24.3319 292.798C23.9811 293.506 23.4702 294.051 22.7993 294.432C22.1283 294.811 21.3128 295 20.3525 295ZM18.5798 293.984H20.2787C21.0604 293.984 21.7082 293.834 22.2222 293.532C22.7362 293.23 23.1193 292.801 23.3717 292.244C23.6241 291.687 23.7503 291.024 23.7503 290.254C23.7503 289.491 23.6256 288.834 23.3763 288.283C23.127 287.729 22.7546 287.304 22.2591 287.009C21.7636 286.71 21.1466 286.561 20.4079 286.561H18.5798V293.984ZM33.1679 295.148C32.5031 295.148 31.9307 294.991 31.4506 294.677C30.9704 294.363 30.6011 293.931 30.3426 293.38C30.0841 292.829 29.9548 292.199 29.9548 291.491C29.9548 290.771 30.0872 290.136 30.3518 289.585C30.6196 289.031 30.992 288.598 31.469 288.288C31.9491 287.974 32.5093 287.817 33.1494 287.817C33.648 287.817 34.0973 287.909 34.4974 288.094C34.8975 288.278 35.2253 288.537 35.4807 288.869C35.7362 289.202 35.8947 289.589 35.9562 290.033H34.8667C34.7836 289.71 34.599 289.423 34.3128 289.174C34.0296 288.922 33.648 288.795 33.1679 288.795C32.7432 288.795 32.3708 288.906 32.0507 289.128C31.7337 289.346 31.4859 289.656 31.3074 290.056C31.132 290.453 31.0443 290.919 31.0443 291.455C31.0443 292.002 31.1305 292.479 31.3028 292.886C31.4782 293.292 31.7245 293.607 32.0415 293.832C32.3615 294.057 32.737 294.169 33.1679 294.169C33.451 294.169 33.708 294.12 33.9388 294.021C34.1697 293.923 34.3651 293.781 34.5251 293.597C34.6852 293.412 34.799 293.19 34.8667 292.932H35.9562C35.8947 293.35 35.7423 293.727 35.4992 294.063C35.2591 294.395 34.9406 294.66 34.5436 294.857C34.1497 295.051 33.6911 295.148 33.1679 295.148ZM39.6356 295.166C39.1862 295.166 38.7784 295.082 38.4122 294.912C38.046 294.74 37.7551 294.492 37.5397 294.169C37.3242 293.843 37.2165 293.449 37.2165 292.987C37.2165 292.581 37.2965 292.252 37.4566 291.999C37.6166 291.744 37.8305 291.544 38.0983 291.399C38.366 291.254 38.6615 291.147 38.9846 291.076C39.3109 291.002 39.6386 290.944 39.968 290.901C40.3988 290.845 40.7481 290.804 41.0159 290.776C41.2867 290.745 41.4837 290.694 41.6068 290.624C41.733 290.553 41.7961 290.43 41.7961 290.254V290.217C41.7961 289.762 41.6714 289.408 41.4221 289.156C41.1759 288.903 40.802 288.777 40.3003 288.777C39.7802 288.777 39.3724 288.891 39.077 289.119C38.7815 289.346 38.5738 289.589 38.4537 289.848L37.4197 289.479C37.6043 289.048 37.8505 288.712 38.1583 288.472C38.4691 288.229 38.8077 288.06 39.1739 287.964C39.5432 287.866 39.9064 287.817 40.2634 287.817C40.4912 287.817 40.7528 287.844 41.0482 287.9C41.3467 287.952 41.6345 288.061 41.9115 288.228C42.1916 288.394 42.4239 288.645 42.6086 288.98C42.7932 289.316 42.8856 289.765 42.8856 290.328V295H41.7961V294.04H41.7407C41.6668 294.194 41.5437 294.358 41.3714 294.534C41.199 294.709 40.9697 294.858 40.6835 294.982C40.3973 295.105 40.048 295.166 39.6356 295.166ZM39.8018 294.188C40.2326 294.188 40.5958 294.103 40.8912 293.934C41.1898 293.764 41.4144 293.546 41.5653 293.278C41.7191 293.01 41.7961 292.729 41.7961 292.433V291.436C41.7499 291.491 41.6483 291.542 41.4914 291.588C41.3375 291.632 41.159 291.67 40.9559 291.704C40.7558 291.735 40.5604 291.762 40.3696 291.787C40.1818 291.808 40.0295 291.827 39.9126 291.842C39.6294 291.879 39.3647 291.939 39.1185 292.022C38.8754 292.102 38.6784 292.224 38.5276 292.387C38.3799 292.547 38.306 292.766 38.306 293.043C38.306 293.421 38.4461 293.707 38.7261 293.901C39.0093 294.092 39.3678 294.188 39.8018 294.188ZM44.8741 295V287.909H45.9267V288.98H46.0005C46.1298 288.629 46.3637 288.345 46.7022 288.126C47.0408 287.908 47.4224 287.798 47.8471 287.798C47.9271 287.798 48.0272 287.8 48.1472 287.803C48.2672 287.806 48.358 287.811 48.4196 287.817V288.925C48.3826 288.915 48.298 288.902 48.1657 288.883C48.0364 288.862 47.8994 288.851 47.7548 288.851C47.4101 288.851 47.1023 288.923 46.8315 289.068C46.5637 289.209 46.3514 289.406 46.1944 289.659C46.0405 289.908 45.9636 290.193 45.9636 290.513V295H44.8741ZM52.1728 295.148C51.5819 295.148 51.0602 294.998 50.6078 294.7C50.1554 294.398 49.8014 293.974 49.546 293.426C49.2905 292.875 49.1628 292.224 49.1628 291.473C49.1628 290.728 49.2905 290.082 49.546 289.534C49.8014 288.986 50.1569 288.563 50.6124 288.265C51.0679 287.966 51.5942 287.817 52.1912 287.817C52.6529 287.817 53.0176 287.894 53.2853 288.048C53.5562 288.198 53.7624 288.371 53.9039 288.565C54.0486 288.755 54.1609 288.912 54.2409 289.036H54.3333V285.545H55.4228V295H54.3702V293.911H54.2409C54.1609 294.04 54.0471 294.203 53.8993 294.4C53.7516 294.594 53.5408 294.768 53.2669 294.922C52.993 295.072 52.6283 295.148 52.1728 295.148ZM52.3205 294.169C52.7575 294.169 53.1268 294.055 53.4284 293.827C53.7301 293.597 53.9593 293.278 54.1163 292.872C54.2733 292.462 54.3517 291.99 54.3517 291.455C54.3517 290.925 54.2748 290.462 54.1209 290.065C53.967 289.665 53.7393 289.354 53.4377 289.132C53.1361 288.908 52.7637 288.795 52.3205 288.795C51.8588 288.795 51.4741 288.914 51.1664 289.151C50.8617 289.385 50.6324 289.703 50.4785 290.107C50.3277 290.507 50.2523 290.956 50.2523 291.455C50.2523 291.959 50.3292 292.418 50.4831 292.83C50.6401 293.24 50.8709 293.566 51.1756 293.809C51.4834 294.049 51.865 294.169 52.3205 294.169Z" fill="black"/>
<path d="M78.0074 229.879C77.9405 230.427 78.3307 230.926 78.8789 230.993L87.8128 232.082C88.361 232.149 88.8596 231.759 88.9265 231.211C88.9933 230.662 88.6031 230.164 88.0549 230.097L80.1137 229.128L81.0821 221.187C81.149 220.639 80.7588 220.14 80.2105 220.074C79.6623 220.007 79.1637 220.397 79.0968 220.945L78.0074 229.879ZM124.384 193.212L78.3837 229.212L79.6163 230.788L125.616 194.788L124.384 193.212Z" fill="black"/>
<path d="M111.315 227.909C111.26 227.441 111.035 227.078 110.641 226.82C110.247 226.561 109.764 226.432 109.192 226.432C108.773 226.432 108.407 226.5 108.093 226.635C107.782 226.77 107.539 226.957 107.364 227.194C107.191 227.431 107.105 227.7 107.105 228.001C107.105 228.254 107.165 228.471 107.285 228.652C107.408 228.831 107.565 228.98 107.756 229.1C107.947 229.217 108.147 229.314 108.356 229.391C108.565 229.465 108.758 229.525 108.933 229.571L109.893 229.83C110.14 229.894 110.414 229.983 110.715 230.097C111.02 230.211 111.311 230.367 111.588 230.564C111.868 230.757 112.099 231.007 112.28 231.311C112.462 231.616 112.553 231.99 112.553 232.433C112.553 232.944 112.419 233.406 112.151 233.818C111.886 234.231 111.498 234.558 110.988 234.801C110.48 235.045 109.863 235.166 109.136 235.166C108.459 235.166 107.873 235.057 107.377 234.838C106.885 234.62 106.497 234.315 106.214 233.924C105.934 233.533 105.776 233.08 105.739 232.562H106.92C106.951 232.92 107.071 233.215 107.281 233.449C107.493 233.68 107.761 233.852 108.084 233.966C108.41 234.077 108.761 234.132 109.136 234.132C109.573 234.132 109.966 234.061 110.314 233.92C110.661 233.775 110.937 233.575 111.14 233.32C111.343 233.061 111.445 232.759 111.445 232.415C111.445 232.101 111.357 231.845 111.181 231.648C111.006 231.451 110.775 231.291 110.489 231.168C110.203 231.045 109.893 230.937 109.561 230.845L108.398 230.513C107.659 230.3 107.074 229.997 106.643 229.603C106.213 229.209 105.997 228.694 105.997 228.057C105.997 227.527 106.14 227.066 106.426 226.672C106.716 226.275 107.104 225.967 107.59 225.749C108.079 225.527 108.625 225.416 109.229 225.416C109.838 225.416 110.38 225.525 110.854 225.744C111.328 225.959 111.703 226.255 111.98 226.63C112.26 227.006 112.408 227.432 112.423 227.909H111.315ZM114.435 235V225.545H117.63C118.371 225.545 118.978 225.679 119.448 225.947C119.922 226.212 120.273 226.57 120.501 227.023C120.729 227.475 120.843 227.98 120.843 228.537C120.843 229.094 120.729 229.6 120.501 230.056C120.276 230.511 119.929 230.874 119.458 231.145C118.987 231.413 118.384 231.547 117.648 231.547H115.358V230.531H117.611C118.119 230.531 118.527 230.444 118.834 230.268C119.142 230.093 119.365 229.856 119.504 229.557C119.645 229.256 119.716 228.915 119.716 228.537C119.716 228.158 119.645 227.82 119.504 227.521C119.365 227.223 119.141 226.989 118.83 226.82C118.519 226.647 118.107 226.561 117.593 226.561H115.58V235H114.435ZM123.832 225.545V235H122.687V225.545H123.832Z" fill="black"/>
<rect x="324" y="232" width="41" height="45" fill="#508B59"/>
<rect x="338" y="247" width="14" height="14" fill="#474747"/>
<path d="M308.145 290.545H309.511L312.724 298.393H312.835L316.048 290.545H317.415V300H316.344V292.817H316.251L313.297 300H312.263L309.308 292.817H309.216V300H308.145V290.545ZM322.443 300.148C321.803 300.148 321.241 299.995 320.758 299.691C320.278 299.386 319.903 298.96 319.632 298.412C319.364 297.864 319.23 297.224 319.23 296.491C319.23 295.753 319.364 295.108 319.632 294.557C319.903 294.006 320.278 293.578 320.758 293.274C321.241 292.969 321.803 292.817 322.443 292.817C323.083 292.817 323.644 292.969 324.124 293.274C324.607 293.578 324.982 294.006 325.25 294.557C325.521 295.108 325.656 295.753 325.656 296.491C325.656 297.224 325.521 297.864 325.25 298.412C324.982 298.96 324.607 299.386 324.124 299.691C323.644 299.995 323.083 300.148 322.443 300.148ZM322.443 299.169C322.93 299.169 323.33 299.044 323.644 298.795C323.957 298.546 324.19 298.218 324.341 297.812C324.491 297.406 324.567 296.965 324.567 296.491C324.567 296.018 324.491 295.576 324.341 295.167C324.19 294.757 323.957 294.426 323.644 294.174C323.33 293.922 322.93 293.795 322.443 293.795C321.957 293.795 321.557 293.922 321.243 294.174C320.929 294.426 320.697 294.757 320.546 295.167C320.395 295.576 320.32 296.018 320.32 296.491C320.32 296.965 320.395 297.406 320.546 297.812C320.697 298.218 320.929 298.546 321.243 298.795C321.557 299.044 321.957 299.169 322.443 299.169ZM330.403 292.909V293.832H326.729V292.909H330.403ZM327.8 291.21H328.889V297.969C328.889 298.277 328.934 298.507 329.023 298.661C329.115 298.812 329.232 298.914 329.374 298.966C329.518 299.015 329.671 299.04 329.831 299.04C329.951 299.04 330.049 299.034 330.126 299.021C330.203 299.006 330.265 298.994 330.311 298.984L330.532 299.963C330.459 299.991 330.356 300.018 330.223 300.046C330.091 300.077 329.923 300.092 329.72 300.092C329.412 300.092 329.111 300.026 328.815 299.894C328.523 299.761 328.28 299.56 328.086 299.289C327.895 299.018 327.8 298.677 327.8 298.264V291.21ZM334.847 300.148C334.206 300.148 333.645 299.995 333.162 299.691C332.681 299.386 332.306 298.96 332.035 298.412C331.767 297.864 331.634 297.224 331.634 296.491C331.634 295.753 331.767 295.108 332.035 294.557C332.306 294.006 332.681 293.578 333.162 293.274C333.645 292.969 334.206 292.817 334.847 292.817C335.487 292.817 336.047 292.969 336.527 293.274C337.01 293.578 337.386 294.006 337.653 294.557C337.924 295.108 338.06 295.753 338.06 296.491C338.06 297.224 337.924 297.864 337.653 298.412C337.386 298.96 337.01 299.386 336.527 299.691C336.047 299.995 335.487 300.148 334.847 300.148ZM334.847 299.169C335.333 299.169 335.733 299.044 336.047 298.795C336.361 298.546 336.593 298.218 336.744 297.812C336.895 297.406 336.97 296.965 336.97 296.491C336.97 296.018 336.895 295.576 336.744 295.167C336.593 294.757 336.361 294.426 336.047 294.174C335.733 293.922 335.333 293.795 334.847 293.795C334.36 293.795 333.96 293.922 333.646 294.174C333.332 294.426 333.1 294.757 332.949 295.167C332.798 295.576 332.723 296.018 332.723 296.491C332.723 296.965 332.798 297.406 332.949 297.812C333.1 298.218 333.332 298.546 333.646 298.795C333.96 299.044 334.36 299.169 334.847 299.169ZM339.723 300V292.909H340.775V293.98H340.849C340.978 293.629 341.212 293.345 341.551 293.126C341.889 292.908 342.271 292.798 342.696 292.798C342.776 292.798 342.876 292.8 342.996 292.803C343.116 292.806 343.207 292.811 343.268 292.817V293.925C343.231 293.915 343.147 293.902 343.014 293.883C342.885 293.862 342.748 293.851 342.603 293.851C342.259 293.851 341.951 293.923 341.68 294.068C341.412 294.209 341.2 294.406 341.043 294.659C340.889 294.908 340.812 295.193 340.812 295.513V300H339.723ZM350.893 300.148C350.303 300.148 349.781 299.998 349.328 299.7C348.876 299.398 348.522 298.974 348.267 298.426C348.011 297.875 347.884 297.224 347.884 296.473C347.884 295.728 348.011 295.082 348.267 294.534C348.522 293.986 348.878 293.563 349.333 293.265C349.789 292.966 350.315 292.817 350.912 292.817C351.374 292.817 351.738 292.894 352.006 293.048C352.277 293.198 352.483 293.371 352.625 293.565C352.769 293.755 352.882 293.912 352.962 294.036H353.054V290.545H354.143V300H353.091V298.911H352.962C352.882 299.04 352.768 299.203 352.62 299.4C352.472 299.594 352.261 299.768 351.988 299.922C351.714 300.072 351.349 300.148 350.893 300.148ZM351.041 299.169C351.478 299.169 351.848 299.055 352.149 298.827C352.451 298.597 352.68 298.278 352.837 297.872C352.994 297.462 353.072 296.99 353.072 296.455C353.072 295.925 352.996 295.462 352.842 295.065C352.688 294.665 352.46 294.354 352.158 294.132C351.857 293.908 351.484 293.795 351.041 293.795C350.58 293.795 350.195 293.914 349.887 294.151C349.582 294.385 349.353 294.703 349.199 295.107C349.048 295.507 348.973 295.956 348.973 296.455C348.973 296.959 349.05 297.418 349.204 297.83C349.361 298.24 349.592 298.566 349.896 298.809C350.204 299.049 350.586 299.169 351.041 299.169ZM356.29 300V292.909H357.343V293.98H357.417C357.546 293.629 357.78 293.345 358.118 293.126C358.457 292.908 358.838 292.798 359.263 292.798C359.343 292.798 359.443 292.8 359.563 292.803C359.683 292.806 359.774 292.811 359.836 292.817V293.925C359.799 293.915 359.714 293.902 359.582 293.883C359.452 293.862 359.315 293.851 359.171 293.851C358.826 293.851 358.518 293.923 358.248 294.068C357.98 294.209 357.767 294.406 357.61 294.659C357.457 294.908 357.38 295.193 357.38 295.513V300H356.29ZM361.127 300V292.909H362.217V300H361.127ZM361.681 291.727C361.469 291.727 361.286 291.655 361.132 291.51C360.981 291.366 360.905 291.192 360.905 290.989C360.905 290.786 360.981 290.612 361.132 290.467C361.286 290.322 361.469 290.25 361.681 290.25C361.893 290.25 362.075 290.322 362.226 290.467C362.38 290.612 362.457 290.786 362.457 290.989C362.457 291.192 362.38 291.366 362.226 291.51C362.075 291.655 361.893 291.727 361.681 291.727ZM370.01 292.909L367.388 300H366.28L363.658 292.909H364.84L366.797 298.56H366.871L368.828 292.909H370.01ZM374.167 300.148C373.484 300.148 372.895 299.997 372.399 299.695C371.907 299.391 371.527 298.966 371.259 298.421C370.994 297.873 370.862 297.236 370.862 296.51C370.862 295.784 370.994 295.143 371.259 294.589C371.527 294.032 371.899 293.598 372.376 293.288C372.856 292.974 373.416 292.817 374.057 292.817C374.426 292.817 374.791 292.878 375.151 293.001C375.511 293.125 375.839 293.325 376.134 293.602C376.43 293.875 376.665 294.239 376.84 294.691C377.016 295.143 377.104 295.701 377.104 296.362V296.824H371.638V295.882H375.996C375.996 295.482 375.916 295.125 375.756 294.811C375.599 294.497 375.374 294.249 375.081 294.068C374.792 293.886 374.451 293.795 374.057 293.795C373.623 293.795 373.247 293.903 372.93 294.119C372.616 294.331 372.375 294.608 372.205 294.95C372.036 295.291 371.952 295.657 371.952 296.048V296.676C371.952 297.212 372.044 297.666 372.229 298.038C372.416 298.407 372.676 298.689 373.009 298.883C373.341 299.074 373.727 299.169 374.167 299.169C374.454 299.169 374.712 299.129 374.943 299.049C375.177 298.966 375.378 298.843 375.548 298.68C375.717 298.513 375.848 298.307 375.94 298.061L376.993 298.357C376.882 298.714 376.696 299.027 376.434 299.298C376.173 299.566 375.849 299.775 375.465 299.926C375.08 300.074 374.648 300.148 374.167 300.148ZM378.761 300V292.909H379.813V293.98H379.887C380.017 293.629 380.25 293.345 380.589 293.126C380.927 292.908 381.309 292.798 381.734 292.798C381.814 292.798 381.914 292.8 382.034 292.803C382.154 292.806 382.245 292.811 382.306 292.817V293.925C382.269 293.915 382.185 293.902 382.052 293.883C381.923 293.862 381.786 293.851 381.642 293.851C381.297 293.851 380.989 293.923 380.718 294.068C380.45 294.209 380.238 294.406 380.081 294.659C379.927 294.908 379.85 295.193 379.85 295.513V300H378.761Z" fill="black"/>
<path d="M314.976 215C315.528 215.013 315.986 214.577 316 214.024L316.219 205.027C316.233 204.475 315.796 204.016 315.244 204.003C314.692 203.99 314.233 204.426 314.22 204.978L314.025 212.976L306.027 212.781C305.475 212.767 305.016 213.204 305.003 213.756C304.99 214.308 305.426 214.767 305.978 214.78L314.976 215ZM294.276 193.69L314.276 214.69L315.724 213.31L295.724 192.31L294.276 193.69Z" fill="black"/>
<path d="M325.145 203V193.545H328.339C329.081 193.545 329.688 193.679 330.158 193.947C330.632 194.212 330.983 194.57 331.211 195.023C331.439 195.475 331.553 195.98 331.553 196.537C331.553 197.094 331.439 197.6 331.211 198.056C330.986 198.511 330.638 198.874 330.168 199.145C329.697 199.413 329.094 199.547 328.358 199.547H326.068V198.531H328.321C328.829 198.531 329.237 198.444 329.544 198.268C329.852 198.093 330.075 197.856 330.214 197.557C330.355 197.256 330.426 196.915 330.426 196.537C330.426 196.158 330.355 195.82 330.214 195.521C330.075 195.223 329.851 194.989 329.54 194.82C329.229 194.647 328.817 194.561 328.303 194.561H326.29V203H325.145ZM335.114 203L332.529 193.545H333.692L335.668 201.246H335.76L337.773 193.545H339.066L341.079 201.246H341.171L343.147 193.545H344.31L341.725 203H340.543L338.456 195.466H338.383L336.296 203H335.114ZM345.737 193.545H347.103L350.316 201.393H350.427L353.64 193.545H355.007V203H353.936V195.817H353.843L350.889 203H349.855L346.9 195.817H346.808V203H345.737V193.545Z" fill="black"/>
<rect x="162" y="243" width="93" height="63" fill="#646464"/>
<circle cx="208" cy="273" r="9" fill="#323232"/>
<path d="M159.533 331H158.332L161.804 321.545H162.986L166.457 331H165.257L162.432 323.041H162.358L159.533 331ZM159.976 327.307H164.814V328.322H159.976V327.307ZM169.075 321.545V331H167.93V321.545H169.075ZM180.677 323.909L178.055 331H176.947L174.325 323.909H175.507L177.464 329.56H177.538L179.495 323.909H180.677ZM182.115 331V323.909H183.205V331H182.115ZM182.669 322.727C182.457 322.727 182.274 322.655 182.12 322.51C181.969 322.366 181.894 322.192 181.894 321.989C181.894 321.786 181.969 321.612 182.12 321.467C182.274 321.322 182.457 321.25 182.669 321.25C182.882 321.25 183.063 321.322 183.214 321.467C183.368 321.612 183.445 321.786 183.445 321.989C183.445 322.192 183.368 322.366 183.214 322.51C183.063 322.655 182.882 322.727 182.669 322.727ZM190.223 325.497L189.244 325.774C189.183 325.611 189.092 325.453 188.972 325.299C188.855 325.142 188.695 325.012 188.492 324.911C188.289 324.809 188.029 324.759 187.712 324.759C187.278 324.759 186.916 324.859 186.627 325.059C186.341 325.256 186.197 325.506 186.197 325.811C186.197 326.082 186.296 326.296 186.493 326.453C186.69 326.61 186.998 326.741 187.416 326.845L188.469 327.104C189.103 327.258 189.575 327.493 189.886 327.81C190.197 328.124 190.352 328.529 190.352 329.024C190.352 329.43 190.235 329.794 190.001 330.114C189.771 330.434 189.447 330.686 189.032 330.871C188.616 331.055 188.133 331.148 187.582 331.148C186.859 331.148 186.261 330.991 185.787 330.677C185.313 330.363 185.013 329.904 184.886 329.301L185.92 329.043C186.019 329.424 186.205 329.71 186.479 329.901C186.756 330.092 187.118 330.188 187.564 330.188C188.072 330.188 188.475 330.08 188.773 329.864C189.075 329.646 189.226 329.384 189.226 329.08C189.226 328.833 189.14 328.627 188.967 328.461C188.795 328.292 188.53 328.165 188.173 328.082L186.991 327.805C186.342 327.652 185.865 327.413 185.56 327.09C185.259 326.764 185.108 326.356 185.108 325.866C185.108 325.466 185.22 325.112 185.445 324.805C185.673 324.497 185.982 324.255 186.373 324.08C186.767 323.904 187.213 323.817 187.712 323.817C188.413 323.817 188.964 323.971 189.364 324.278C189.768 324.586 190.054 324.992 190.223 325.497ZM191.992 331V323.909H193.082V331H191.992ZM192.546 322.727C192.334 322.727 192.151 322.655 191.997 322.51C191.846 322.366 191.771 322.192 191.771 321.989C191.771 321.786 191.846 321.612 191.997 321.467C192.151 321.322 192.334 321.25 192.546 321.25C192.759 321.25 192.94 321.322 193.091 321.467C193.245 321.612 193.322 321.786 193.322 321.989C193.322 322.192 193.245 322.366 193.091 322.51C192.94 322.655 192.759 322.727 192.546 322.727ZM197.958 331.148C197.318 331.148 196.756 330.995 196.273 330.691C195.793 330.386 195.417 329.96 195.146 329.412C194.879 328.864 194.745 328.224 194.745 327.491C194.745 326.753 194.879 326.108 195.146 325.557C195.417 325.006 195.793 324.578 196.273 324.274C196.756 323.969 197.318 323.817 197.958 323.817C198.598 323.817 199.158 323.969 199.638 324.274C200.122 324.578 200.497 325.006 200.765 325.557C201.036 326.108 201.171 326.753 201.171 327.491C201.171 328.224 201.036 328.864 200.765 329.412C200.497 329.96 200.122 330.386 199.638 330.691C199.158 330.995 198.598 331.148 197.958 331.148ZM197.958 330.169C198.444 330.169 198.844 330.044 199.158 329.795C199.472 329.546 199.704 329.218 199.855 328.812C200.006 328.406 200.081 327.965 200.081 327.491C200.081 327.018 200.006 326.576 199.855 326.167C199.704 325.757 199.472 325.426 199.158 325.174C198.844 324.922 198.444 324.795 197.958 324.795C197.472 324.795 197.072 324.922 196.758 325.174C196.444 325.426 196.211 325.757 196.061 326.167C195.91 326.576 195.834 327.018 195.834 327.491C195.834 327.965 195.91 328.406 196.061 328.812C196.211 329.218 196.444 329.546 196.758 329.795C197.072 330.044 197.472 330.169 197.958 330.169ZM203.924 326.734V331H202.834V323.909H203.887V325.017H203.979C204.145 324.657 204.398 324.368 204.736 324.149C205.075 323.928 205.512 323.817 206.047 323.817C206.527 323.817 206.947 323.915 207.307 324.112C207.668 324.306 207.948 324.602 208.148 324.999C208.348 325.393 208.448 325.891 208.448 326.494V331H207.358V326.568C207.358 326.011 207.214 325.577 206.924 325.266C206.635 324.952 206.238 324.795 205.733 324.795C205.385 324.795 205.075 324.871 204.801 325.022C204.53 325.172 204.316 325.393 204.159 325.682C204.002 325.971 203.924 326.322 203.924 326.734ZM216.975 331.148C216.311 331.148 215.738 330.991 215.258 330.677C214.778 330.363 214.409 329.931 214.15 329.38C213.892 328.829 213.762 328.199 213.762 327.491C213.762 326.771 213.895 326.136 214.159 325.585C214.427 325.031 214.8 324.598 215.277 324.288C215.757 323.974 216.317 323.817 216.957 323.817C217.456 323.817 217.905 323.909 218.305 324.094C218.705 324.278 219.033 324.537 219.288 324.869C219.544 325.202 219.702 325.589 219.764 326.033H218.674C218.591 325.71 218.407 325.423 218.12 325.174C217.837 324.922 217.456 324.795 216.975 324.795C216.551 324.795 216.178 324.906 215.858 325.128C215.541 325.346 215.294 325.656 215.115 326.056C214.94 326.453 214.852 326.919 214.852 327.455C214.852 328.002 214.938 328.479 215.11 328.886C215.286 329.292 215.532 329.607 215.849 329.832C216.169 330.057 216.545 330.169 216.975 330.169C217.259 330.169 217.516 330.12 217.746 330.021C217.977 329.923 218.173 329.781 218.333 329.597C218.493 329.412 218.607 329.19 218.674 328.932H219.764C219.702 329.35 219.55 329.727 219.307 330.063C219.067 330.395 218.748 330.66 218.351 330.857C217.957 331.051 217.499 331.148 216.975 331.148ZM223.443 331.166C222.994 331.166 222.586 331.082 222.22 330.912C221.854 330.74 221.563 330.492 221.347 330.169C221.132 329.843 221.024 329.449 221.024 328.987C221.024 328.581 221.104 328.252 221.264 327.999C221.424 327.744 221.638 327.544 221.906 327.399C222.174 327.254 222.469 327.147 222.792 327.076C223.118 327.002 223.446 326.944 223.776 326.901C224.206 326.845 224.556 326.804 224.824 326.776C225.094 326.745 225.291 326.694 225.414 326.624C225.541 326.553 225.604 326.43 225.604 326.254V326.217C225.604 325.762 225.479 325.408 225.23 325.156C224.984 324.903 224.61 324.777 224.108 324.777C223.588 324.777 223.18 324.891 222.885 325.119C222.589 325.346 222.381 325.589 222.261 325.848L221.227 325.479C221.412 325.048 221.658 324.712 221.966 324.472C222.277 324.229 222.615 324.06 222.982 323.964C223.351 323.866 223.714 323.817 224.071 323.817C224.299 323.817 224.56 323.844 224.856 323.9C225.154 323.952 225.442 324.061 225.719 324.228C225.999 324.394 226.232 324.645 226.416 324.98C226.601 325.316 226.693 325.765 226.693 326.328V331H225.604V330.04H225.548C225.474 330.194 225.351 330.358 225.179 330.534C225.007 330.709 224.777 330.858 224.491 330.982C224.205 331.105 223.856 331.166 223.443 331.166ZM223.609 330.188C224.04 330.188 224.403 330.103 224.699 329.934C224.997 329.764 225.222 329.546 225.373 329.278C225.527 329.01 225.604 328.729 225.604 328.433V327.436C225.558 327.491 225.456 327.542 225.299 327.588C225.145 327.632 224.967 327.67 224.763 327.704C224.563 327.735 224.368 327.762 224.177 327.787C223.989 327.808 223.837 327.827 223.72 327.842C223.437 327.879 223.172 327.939 222.926 328.022C222.683 328.102 222.486 328.224 222.335 328.387C222.188 328.547 222.114 328.766 222.114 329.043C222.114 329.421 222.254 329.707 222.534 329.901C222.817 330.092 223.175 330.188 223.609 330.188ZM228.682 331V323.909H229.734V325.017H229.827C229.974 324.638 230.213 324.345 230.542 324.135C230.871 323.923 231.267 323.817 231.729 323.817C232.196 323.817 232.586 323.923 232.897 324.135C233.21 324.345 233.455 324.638 233.631 325.017H233.704C233.886 324.651 234.158 324.36 234.522 324.145C234.885 323.926 235.32 323.817 235.828 323.817C236.462 323.817 236.981 324.015 237.384 324.412C237.787 324.806 237.989 325.42 237.989 326.254V331H236.899V326.254C236.899 325.731 236.756 325.357 236.47 325.132C236.184 324.908 235.847 324.795 235.459 324.795C234.96 324.795 234.574 324.946 234.3 325.248C234.026 325.546 233.889 325.925 233.889 326.384V331H232.781V326.143C232.781 325.74 232.65 325.416 232.389 325.169C232.127 324.92 231.79 324.795 231.378 324.795C231.095 324.795 230.83 324.871 230.584 325.022C230.341 325.172 230.144 325.382 229.993 325.65C229.845 325.914 229.771 326.22 229.771 326.568V331H228.682ZM242.954 331.148C242.27 331.148 241.681 330.997 241.185 330.695C240.693 330.391 240.313 329.966 240.045 329.421C239.781 328.873 239.648 328.236 239.648 327.51C239.648 326.784 239.781 326.143 240.045 325.589C240.313 325.032 240.685 324.598 241.162 324.288C241.642 323.974 242.203 323.817 242.843 323.817C243.212 323.817 243.577 323.878 243.937 324.001C244.297 324.125 244.625 324.325 244.92 324.602C245.216 324.875 245.451 325.239 245.627 325.691C245.802 326.143 245.89 326.701 245.89 327.362V327.824H240.424V326.882H244.782C244.782 326.482 244.702 326.125 244.542 325.811C244.385 325.497 244.16 325.249 243.868 325.068C243.578 324.886 243.237 324.795 242.843 324.795C242.409 324.795 242.033 324.903 241.716 325.119C241.402 325.331 241.161 325.608 240.992 325.95C240.822 326.291 240.738 326.657 240.738 327.048V327.676C240.738 328.212 240.83 328.666 241.015 329.038C241.202 329.407 241.462 329.689 241.795 329.883C242.127 330.074 242.513 330.169 242.954 330.169C243.24 330.169 243.498 330.129 243.729 330.049C243.963 329.966 244.165 329.843 244.334 329.68C244.503 329.513 244.634 329.307 244.726 329.061L245.779 329.357C245.668 329.714 245.482 330.027 245.22 330.298C244.959 330.566 244.636 330.775 244.251 330.926C243.866 331.074 243.434 331.148 242.954 331.148ZM247.547 331V323.909H248.6V324.98H248.673C248.803 324.629 249.037 324.345 249.375 324.126C249.714 323.908 250.095 323.798 250.52 323.798C250.6 323.798 250.7 323.8 250.82 323.803C250.94 323.806 251.031 323.811 251.092 323.817V324.925C251.055 324.915 250.971 324.902 250.839 324.883C250.709 324.862 250.572 324.851 250.428 324.851C250.083 324.851 249.775 324.923 249.504 325.068C249.237 325.209 249.024 325.406 248.867 325.659C248.713 325.908 248.636 326.193 248.636 326.513V331H247.547ZM254.471 331.166C254.021 331.166 253.613 331.082 253.247 330.912C252.881 330.74 252.59 330.492 252.375 330.169C252.159 329.843 252.051 329.449 252.051 328.987C252.051 328.581 252.132 328.252 252.292 327.999C252.452 327.744 252.665 327.544 252.933 327.399C253.201 327.254 253.496 327.147 253.82 327.076C254.146 327.002 254.474 326.944 254.803 326.901C255.234 326.845 255.583 326.804 255.851 326.776C256.122 326.745 256.319 326.694 256.442 326.624C256.568 326.553 256.631 326.43 256.631 326.254V326.217C256.631 325.762 256.506 325.408 256.257 325.156C256.011 324.903 255.637 324.777 255.135 324.777C254.615 324.777 254.207 324.891 253.912 325.119C253.616 325.346 253.409 325.589 253.289 325.848L252.255 325.479C252.439 325.048 252.685 324.712 252.993 324.472C253.304 324.229 253.643 324.06 254.009 323.964C254.378 323.866 254.741 323.817 255.098 323.817C255.326 323.817 255.588 323.844 255.883 323.9C256.182 323.952 256.469 324.061 256.746 324.228C257.027 324.394 257.259 324.645 257.444 324.98C257.628 325.316 257.721 325.765 257.721 326.328V331H256.631V330.04H256.576C256.502 330.194 256.379 330.358 256.206 330.534C256.034 330.709 255.805 330.858 255.518 330.982C255.232 331.105 254.883 331.166 254.471 331.166ZM254.637 330.188C255.068 330.188 255.431 330.103 255.726 329.934C256.025 329.764 256.249 329.546 256.4 329.278C256.554 329.01 256.631 328.729 256.631 328.433V327.436C256.585 327.491 256.483 327.542 256.326 327.588C256.172 327.632 255.994 327.67 255.791 327.704C255.591 327.735 255.395 327.762 255.205 327.787C255.017 327.808 254.864 327.827 254.748 327.842C254.464 327.879 254.2 327.939 253.953 328.022C253.71 328.102 253.513 328.224 253.363 328.387C253.215 328.547 253.141 328.766 253.141 329.043C253.141 329.421 253.281 329.707 253.561 329.901C253.844 330.092 254.203 330.188 254.637 330.188Z" fill="black"/>
<path d="M204.293 238.707C204.683 239.098 205.317 239.098 205.707 238.707L212.071 232.343C212.462 231.953 212.462 231.319 212.071 230.929C211.681 230.538 211.047 230.538 210.657 230.929L205 236.586L199.343 230.929C198.953 230.538 198.319 230.538 197.929 230.929C197.538 231.319 197.538 231.953 197.929 232.343L204.293 238.707ZM204 213V238H206V213H204Z" fill="black"/>
<path d="M222.29 220.545V230H221.145V220.545H222.29ZM224.419 230V229.169L227.54 225.753C227.906 225.353 228.208 225.005 228.445 224.71C228.682 224.411 228.857 224.131 228.971 223.869C229.088 223.605 229.146 223.328 229.146 223.038C229.146 222.706 229.066 222.418 228.906 222.175C228.749 221.932 228.534 221.744 228.26 221.612C227.986 221.48 227.678 221.413 227.337 221.413C226.974 221.413 226.657 221.489 226.386 221.64C226.118 221.787 225.91 221.995 225.763 222.263C225.618 222.531 225.546 222.844 225.546 223.205H224.456C224.456 222.651 224.584 222.164 224.839 221.746C225.095 221.327 225.442 221.001 225.883 220.767C226.326 220.533 226.823 220.416 227.374 220.416C227.928 220.416 228.419 220.533 228.846 220.767C229.274 221.001 229.61 221.316 229.853 221.713C230.096 222.11 230.217 222.552 230.217 223.038C230.217 223.386 230.154 223.726 230.028 224.059C229.905 224.388 229.69 224.756 229.382 225.162C229.077 225.565 228.654 226.058 228.112 226.639L225.989 228.911V228.984H230.384V230H224.419ZM240.064 223.5H238.919C238.852 223.171 238.733 222.881 238.564 222.632C238.398 222.383 238.195 222.174 237.955 222.004C237.718 221.832 237.455 221.703 237.165 221.616C236.876 221.53 236.574 221.487 236.26 221.487C235.688 221.487 235.169 221.632 234.705 221.921C234.243 222.21 233.875 222.637 233.601 223.2C233.33 223.763 233.195 224.454 233.195 225.273C233.195 226.091 233.33 226.782 233.601 227.346C233.875 227.909 234.243 228.335 234.705 228.624C235.169 228.914 235.688 229.058 236.26 229.058C236.574 229.058 236.876 229.015 237.165 228.929C237.455 228.843 237.718 228.715 237.955 228.546C238.195 228.373 238.398 228.163 238.564 227.913C238.733 227.661 238.852 227.372 238.919 227.045H240.064C239.978 227.529 239.821 227.961 239.593 228.343C239.366 228.724 239.083 229.049 238.744 229.317C238.406 229.581 238.025 229.783 237.604 229.922C237.185 230.06 236.737 230.129 236.26 230.129C235.454 230.129 234.737 229.932 234.109 229.538C233.481 229.144 232.987 228.584 232.627 227.858C232.267 227.132 232.087 226.27 232.087 225.273C232.087 224.276 232.267 223.414 232.627 222.688C232.987 221.961 233.481 221.401 234.109 221.007C234.737 220.613 235.454 220.416 236.26 220.416C236.737 220.416 237.185 220.485 237.604 220.624C238.025 220.762 238.406 220.966 238.744 221.233C239.083 221.498 239.366 221.821 239.593 222.203C239.821 222.581 239.978 223.014 240.064 223.5Z" fill="black"/>
</svg>
